<svg width="1940" height="343" viewBox="0 0 1940 343" fill="none" xmlns="http://www.w3.org/2000/svg">
<g clip-path="url(#clip0_443_857)">
<rect width="1940" height="343" fill="white"/>
<rect x="-3.8999" width="80.3148" height="20.5514" rx="3" fill="#E14646" fill-opacity="0.3"/>
<path d="M3.75297 14V3.81818H7.19332C7.98877 3.81818 8.64171 3.95407 9.15212 4.22585C9.66254 4.49432 10.0404 4.86387 10.2856 5.33452C10.5309 5.80516 10.6535 6.34044 10.6535 6.94034C10.6535 7.54025 10.5309 8.07221 10.2856 8.53622C10.0404 9.00024 9.6642 9.36482 9.15709 9.62997C8.64999 9.89181 8.00203 10.0227 7.2132 10.0227H4.42911V8.90909H7.17343C7.71699 8.90909 8.15449 8.82955 8.48593 8.67045C8.82068 8.51136 9.06263 8.28598 9.21178 7.99432C9.36424 7.69934 9.44047 7.34801 9.44047 6.94034C9.44047 6.53267 9.36424 6.17637 9.21178 5.87145C9.05932 5.56652 8.81571 5.3312 8.48096 5.16548C8.1462 4.99645 7.70373 4.91193 7.15354 4.91193H4.98593V14H3.75297ZM8.54559 9.42614L11.0513 14H9.61945L7.15354 9.42614H8.54559ZM15.6686 14.1591C14.9328 14.1591 14.2981 13.9967 13.7645 13.6719C13.2342 13.3438 12.8249 12.8864 12.5365 12.2997C12.2515 11.7098 12.109 11.0237 12.109 10.2415C12.109 9.45928 12.2515 8.76989 12.5365 8.1733C12.8249 7.57339 13.2259 7.10606 13.7397 6.77131C14.2567 6.43324 14.8599 6.2642 15.5493 6.2642C15.947 6.2642 16.3398 6.33049 16.7276 6.46307C17.1154 6.59564 17.4684 6.81108 17.7865 7.10938C18.1047 7.40436 18.3583 7.79545 18.5472 8.28267C18.7361 8.76989 18.8306 9.36979 18.8306 10.0824V10.5795H12.9442V9.56534H17.6374C17.6374 9.13447 17.5512 8.75 17.3789 8.41193C17.2098 8.07386 16.9679 7.80705 16.653 7.61151C16.3415 7.41596 15.9736 7.31818 15.5493 7.31818C15.082 7.31818 14.6776 7.43419 14.3362 7.66619C13.9982 7.89489 13.738 8.19318 13.5557 8.56108C13.3734 8.92898 13.2823 9.32339 13.2823 9.74432V10.4205C13.2823 10.9972 13.3817 11.486 13.5806 11.8871C13.7827 12.2848 14.0628 12.5881 14.4208 12.7969C14.7787 13.0024 15.1947 13.1051 15.6686 13.1051C15.9769 13.1051 16.2553 13.062 16.5039 12.9759C16.7558 12.8864 16.9728 12.7538 17.1551 12.5781C17.3374 12.3991 17.4783 12.1771 17.5777 11.9119L18.7112 12.2301C18.5919 12.6146 18.3914 12.9527 18.1097 13.2443C17.828 13.5327 17.48 13.758 17.0657 13.9205C16.6514 14.0795 16.1857 14.1591 15.6686 14.1591ZM23.4989 14.1591C22.8625 14.1591 22.3007 13.9983 21.8135 13.6768C21.3263 13.352 20.9451 12.8946 20.6701 12.3047C20.395 11.7114 20.2574 11.0104 20.2574 10.2017C20.2574 9.39962 20.395 8.7036 20.6701 8.11364C20.9451 7.52367 21.328 7.06794 21.8185 6.74645C22.309 6.42495 22.8758 6.2642 23.5188 6.2642C24.0159 6.2642 24.4087 6.34706 24.697 6.51278C24.9887 6.67519 25.2108 6.8608 25.3632 7.0696C25.519 7.27509 25.64 7.44413 25.7262 7.5767H25.8256V3.81818H26.9989V14H25.8654V12.8267H25.7262C25.64 12.9659 25.5174 13.1416 25.3583 13.3537C25.1992 13.5625 24.9721 13.7498 24.6772 13.9155C24.3822 14.0779 23.9894 14.1591 23.4989 14.1591ZM23.658 13.1051C24.1286 13.1051 24.5264 12.9825 24.8512 12.7372C25.176 12.4886 25.4229 12.1456 25.5919 11.7081C25.761 11.2673 25.8455 10.7585 25.8455 10.1818C25.8455 9.61174 25.7626 9.11293 25.5969 8.68537C25.4312 8.2545 25.1859 7.91974 24.8611 7.68111C24.5363 7.43916 24.1353 7.31818 23.658 7.31818C23.1608 7.31818 22.7465 7.44579 22.4151 7.70099C22.087 7.95289 21.84 8.29593 21.6743 8.73011C21.5119 9.16098 21.4307 9.64489 21.4307 10.1818C21.4307 10.7254 21.5136 11.2192 21.6793 11.6634C21.8483 12.1042 22.0969 12.4555 22.425 12.7173C22.7565 12.9759 23.1675 13.1051 23.658 13.1051ZM36.5692 6.36364V7.35795H32.6118V6.36364H36.5692ZM33.7652 4.53409H34.9385V11.8125C34.9385 12.1439 34.9866 12.3925 35.0827 12.5582C35.1821 12.7206 35.3081 12.83 35.4605 12.8864C35.6163 12.9394 35.7804 12.9659 35.9527 12.9659C36.082 12.9659 36.188 12.9593 36.2709 12.946C36.3538 12.9295 36.4201 12.9162 36.4698 12.9062L36.7084 13.9602C36.6289 13.9901 36.5178 14.0199 36.3753 14.0497C36.2328 14.0829 36.0522 14.0994 35.8334 14.0994C35.502 14.0994 35.1772 14.0282 34.859 13.8857C34.5441 13.7431 34.2823 13.526 34.0735 13.2344C33.868 12.9427 33.7652 12.5748 33.7652 12.1307V4.53409ZM40.5813 14.179C40.0974 14.179 39.6582 14.0878 39.2638 13.9055C38.8694 13.7199 38.5562 13.4531 38.3242 13.1051C38.0922 12.7538 37.9762 12.3295 37.9762 11.8324C37.9762 11.3949 38.0623 11.0402 38.2347 10.7685C38.407 10.4934 38.6374 10.2779 38.9257 10.1222C39.2141 9.96638 39.5323 9.85038 39.8803 9.77415C40.2316 9.6946 40.5846 9.63163 40.9392 9.58523C41.4032 9.52557 41.7794 9.48082 42.0678 9.45099C42.3594 9.41785 42.5716 9.36316 42.7041 9.28693C42.84 9.2107 42.908 9.07812 42.908 8.8892V8.84943C42.908 8.3589 42.7737 7.97775 42.5053 7.70597C42.2401 7.43419 41.8374 7.2983 41.2972 7.2983C40.7371 7.2983 40.2979 7.42093 39.9797 7.66619C39.6615 7.91146 39.4378 8.1733 39.3085 8.4517L38.1949 8.05398C38.3938 7.58996 38.6589 7.22869 38.9904 6.97017C39.3251 6.70833 39.6897 6.52604 40.0841 6.4233C40.4818 6.31723 40.8729 6.2642 41.2574 6.2642C41.5027 6.2642 41.7844 6.29403 42.1026 6.35369C42.4241 6.41004 42.734 6.5277 43.0323 6.70668C43.3339 6.88565 43.5841 7.15578 43.783 7.51705C43.9818 7.87831 44.0813 8.36222 44.0813 8.96875V14H42.908V12.9659H42.8483C42.7688 13.1316 42.6362 13.3089 42.4506 13.4979C42.265 13.6868 42.0181 13.8475 41.7098 13.9801C41.4016 14.1127 41.0254 14.179 40.5813 14.179ZM40.7603 13.125C41.2243 13.125 41.6154 13.0339 41.9335 12.8516C42.255 12.6693 42.497 12.4339 42.6594 12.1456C42.8251 11.8572 42.908 11.554 42.908 11.2358V10.1619C42.8583 10.2216 42.7489 10.2763 42.5799 10.326C42.4141 10.3724 42.2219 10.4138 42.0032 10.4503C41.7877 10.4834 41.5773 10.5133 41.3718 10.5398C41.1696 10.563 41.0055 10.5829 40.8796 10.5994C40.5746 10.6392 40.2896 10.7038 40.0245 10.7933C39.7626 10.8795 39.5505 11.0104 39.3881 11.1861C39.229 11.3584 39.1495 11.5937 39.1495 11.892C39.1495 12.2997 39.3003 12.608 39.6019 12.8168C39.9068 13.0223 40.2929 13.125 40.7603 13.125ZM49.3052 17.0227C48.7384 17.0227 48.2512 16.9498 47.8435 16.804C47.4359 16.6615 47.0961 16.4725 46.8244 16.2372C46.5559 16.0052 46.3421 15.7566 46.183 15.4915L47.1177 14.8352C47.2237 14.9744 47.358 15.1335 47.5204 15.3125C47.6828 15.4948 47.9048 15.6522 48.1866 15.7848C48.4716 15.9207 48.8445 15.9886 49.3052 15.9886C49.9217 15.9886 50.4304 15.8395 50.8315 15.5412C51.2325 15.2429 51.433 14.7756 51.433 14.1392V12.5881H51.3336C51.2474 12.7273 51.1248 12.8996 50.9657 13.1051C50.8099 13.3073 50.5845 13.4879 50.2896 13.647C49.9979 13.8028 49.6035 13.8807 49.1063 13.8807C48.4898 13.8807 47.9363 13.7348 47.4458 13.4432C46.9586 13.1515 46.5725 12.7273 46.2874 12.1705C46.0057 11.6136 45.8648 10.9375 45.8648 10.142C45.8648 9.35985 46.0024 8.67874 46.2775 8.09872C46.5526 7.51539 46.9354 7.06463 47.4259 6.74645C47.9164 6.42495 48.4832 6.2642 49.1262 6.2642C49.6234 6.2642 50.0178 6.34706 50.3094 6.51278C50.6044 6.67519 50.8298 6.8608 50.9856 7.0696C51.1447 7.27509 51.2673 7.44413 51.3535 7.5767H51.4728V6.36364H52.6063V14.2188C52.6063 14.875 52.4572 15.4086 52.1589 15.8196C51.8639 16.2339 51.4662 16.5372 50.9657 16.7294C50.4685 16.925 49.915 17.0227 49.3052 17.0227ZM49.2654 12.8267C49.736 12.8267 50.1338 12.719 50.4586 12.5036C50.7834 12.2881 51.0303 11.9782 51.1994 11.5739C51.3684 11.1695 51.4529 10.6856 51.4529 10.1222C51.4529 9.57197 51.37 9.08641 51.2043 8.66548C51.0386 8.24455 50.7933 7.91477 50.4685 7.67614C50.1437 7.4375 49.7427 7.31818 49.2654 7.31818C48.7682 7.31818 48.3539 7.44413 48.0225 7.69602C47.6944 7.94792 47.4475 8.28598 47.2817 8.71023C47.1193 9.13447 47.0381 9.60511 47.0381 10.1222C47.0381 10.6525 47.121 11.1214 47.2867 11.5291C47.4557 11.9335 47.7043 12.2517 48.0324 12.4837C48.3639 12.7124 48.7749 12.8267 49.2654 12.8267Z" fill="#37352F"/>
<path d="M-4 0H1944V343H-4V0Z" fill="#CCFFE2"/>
<path fill-rule="evenodd" clip-rule="evenodd" d="M1943.55 237.166V343H475.379C535.532 293.689 599.915 248.214 668.419 207.174C1082.63 -40.9782 1540.57 29.3675 1943.55 237.166Z" fill="#FFECEA"/>
<path fill-rule="evenodd" clip-rule="evenodd" d="M1373.87 169.08C1373.93 113.585 1408.92 58.5252 1467.21 46.2886C1518.96 35.4249 1554.8 83.747 1584.16 124.933C1611.76 163.654 1640.07 210.579 1611.16 248.223C1579.64 289.281 1518.29 294.69 1466.96 277.572C1415.17 260.296 1373.82 220.063 1373.87 169.08Z" fill="#0018A4"/>
<path fill-rule="evenodd" clip-rule="evenodd" d="M135.668 64.0355C166.613 63.0843 197.932 81.711 205.784 114.146C212.755 142.942 186.443 163.876 163.996 181.054C142.892 197.204 117.226 213.893 95.7253 198.369C72.2753 181.438 68.1762 147.165 76.8156 118.11C85.5343 88.7876 107.239 64.9093 135.668 64.0355Z" fill="white"/>
<rect x="-4" width="1944" height="100" fill="#0018A4"/>
<path d="M-57.1425 39.532V45.928H-54.2315C-52.4275 45.928 -51.0335 44.534 -51.0335 42.73C-51.0335 40.926 -52.4275 39.532 -54.2315 39.532H-57.1425ZM-57.1425 38.876H-54.2315C-52.0995 38.876 -50.3775 40.598 -50.3775 42.73C-50.3775 44.862 -52.0995 46.584 -54.2315 46.584H-57.1425V51.504H-54.2315C-49.3115 51.504 -45.4575 47.65 -45.4575 42.73C-45.4575 37.81 -49.3115 33.956 -54.2315 33.956H-57.1425V38.876ZM-62.7185 52.16V62H-63.3745V33.3H-54.2315C-48.9835 33.3 -44.8015 37.482 -44.8015 42.73C-44.8015 47.978 -48.9835 52.16 -54.2315 52.16H-57.1425V62H-57.7985V52.16H-62.7185ZM-62.7185 39.532V45.928H-57.7985V39.532H-62.7185ZM-57.7985 33.956H-62.7185V38.876H-57.7985V33.956ZM-57.7985 46.584H-62.7185V51.504H-57.7985V46.584ZM-32.3196 62.492C-38.5926 62.492 -43.6766 57.408 -43.6766 51.135C-43.6766 44.862 -38.5926 39.778 -32.3196 39.778C-26.0466 39.778 -20.9626 44.862 -20.9626 51.135C-20.9626 57.408 -26.0466 62.492 -32.3196 62.492ZM-32.3196 61.836C-26.4156 61.836 -21.6186 57.039 -21.6186 51.135C-21.6186 45.231 -26.4156 40.434 -32.3196 40.434C-38.2236 40.434 -43.0206 45.231 -43.0206 51.135C-43.0206 57.039 -38.2236 61.836 -32.3196 61.836ZM-32.3196 56.916C-35.5176 56.916 -38.1006 54.333 -38.1006 51.135C-38.1006 47.937 -35.5176 45.354 -32.3196 45.354C-29.1216 45.354 -26.5386 47.937 -26.5386 51.135C-26.5386 54.333 -29.1216 56.916 -32.3196 56.916ZM-32.3196 56.26C-29.4906 56.26 -27.1946 53.964 -27.1946 51.135C-27.1946 48.306 -29.4906 46.01 -32.3196 46.01C-35.1486 46.01 -37.4446 48.306 -37.4446 51.135C-37.4446 53.964 -35.1486 56.26 -32.3196 56.26ZM-7.56777 56.014L-3.13977 62H-3.95977L-11.7908 51.422V62H-12.4468V31.25H-11.7908V51.422L-3.13977 40.27H-2.31977L-7.52677 46.953L-4.49277 50.971L3.74823 40.27H4.56823L-4.08277 51.504L3.74823 62H2.92823L-4.53377 52.078L-7.56777 56.014ZM-17.3668 31.25V62H-18.0228V31.25H-17.3668ZM-4.94377 51.504L-7.93677 47.486L-11.0118 51.422L-7.97777 55.481L-4.94377 51.504ZM3.20914 51.135C3.20914 44.862 8.29314 39.778 14.5661 39.778C19.5681 39.778 23.7911 42.976 25.3081 47.486L11.9831 55.563C12.7621 56.014 13.6231 56.26 14.5661 56.26C16.6161 56.26 18.3791 55.03 19.1991 53.308L19.8141 53.595C18.9121 55.563 16.9031 56.916 14.5661 56.916C13.3771 56.916 12.2701 56.547 11.3681 55.932L6.94014 58.638C8.86714 60.606 11.5731 61.836 14.5661 61.836C18.8301 61.836 22.5611 59.294 24.2831 55.645L24.8571 55.932C23.0531 59.827 19.1171 62.492 14.5661 62.492C8.29314 62.492 3.20914 57.408 3.20914 51.135ZM3.86514 51.135C3.86514 52.324 4.07014 53.431 4.39814 54.497L8.82614 51.791C8.78514 51.586 8.78514 51.34 8.78514 51.135C8.78514 47.937 11.3681 45.354 14.5661 45.354C15.7551 45.354 16.9031 45.723 17.8051 46.338L22.1921 43.673C20.2651 41.664 17.5591 40.434 14.5661 40.434C8.66215 40.434 3.86514 45.231 3.86514 51.135ZM4.64414 55.112C5.09514 56.219 5.71014 57.244 6.48914 58.146L10.7941 55.522C9.89215 54.743 9.23615 53.677 8.94915 52.488L4.64414 55.112ZM9.44114 51.135V51.422L17.1901 46.707C16.4111 46.256 15.5091 46.01 14.5661 46.01C11.7371 46.01 9.44114 48.306 9.44114 51.135ZM9.52315 52.16C9.76914 53.349 10.4661 54.415 11.4091 55.153L19.6091 50.151C19.3631 48.962 18.7071 47.896 17.7641 47.117L9.52315 52.16ZM18.3791 46.789C19.2811 47.568 19.9371 48.593 20.1831 49.823L24.5291 47.158C24.0781 46.051 23.4221 45.067 22.6841 44.165L18.3791 46.789ZM27.3014 62V40.27H27.9574V45.969C28.8594 43.714 30.6634 41.869 32.8774 40.885V40.27H33.5334V40.639C34.4764 40.311 35.5424 40.106 36.6085 40.106C38.9865 40.106 41.1595 41.008 42.7995 42.484C44.4394 41.008 46.6124 40.106 48.9905 40.106C54.1155 40.106 58.2975 44.288 58.2975 49.413V62H57.6414V49.413C57.6414 44.657 53.7465 40.762 48.9905 40.762C46.8174 40.762 44.8084 41.582 43.2914 42.935C44.5214 44.206 45.3824 45.805 45.7515 47.609C46.3665 46.461 47.5964 45.682 48.9905 45.682C51.0405 45.682 52.7214 47.363 52.7214 49.413V62H52.0655V49.413C52.0655 47.732 50.6715 46.338 48.9905 46.338C47.3095 46.338 45.9154 47.732 45.9154 49.413V62H45.2595V49.413C45.2595 47.076 44.3165 44.944 42.7995 43.386C41.2825 44.944 40.3394 47.076 40.3394 49.413V62H39.6834V49.413C39.6834 47.732 38.2894 46.338 36.6085 46.338C34.9274 46.338 33.5334 47.732 33.5334 49.413V62H32.8774V41.623C29.9664 43.017 27.9574 46.01 27.9574 49.413V62H27.3014ZM33.5334 41.336V47.322C34.1894 46.338 35.3374 45.682 36.6085 45.682C38.0024 45.682 39.2324 46.461 39.8475 47.609C40.2165 45.805 41.0775 44.206 42.3075 42.935C40.7905 41.582 38.7815 40.762 36.6085 40.762C35.5424 40.762 34.4764 40.967 33.5334 41.336ZM72.3025 62.492C66.0295 62.492 60.9455 57.408 60.9455 51.135C60.9455 44.862 66.0295 39.778 72.3025 39.778C78.5755 39.778 83.6595 44.862 83.6595 51.135C83.6595 57.408 78.5755 62.492 72.3025 62.492ZM72.3025 61.836C78.2065 61.836 83.0035 57.039 83.0035 51.135C83.0035 45.231 78.2065 40.434 72.3025 40.434C66.3985 40.434 61.6015 45.231 61.6015 51.135C61.6015 57.039 66.3985 61.836 72.3025 61.836ZM72.3025 56.916C69.1045 56.916 66.5215 54.333 66.5215 51.135C66.5215 47.937 69.1045 45.354 72.3025 45.354C75.5005 45.354 78.0835 47.937 78.0835 51.135C78.0835 54.333 75.5005 56.916 72.3025 56.916ZM72.3025 56.26C75.1315 56.26 77.4275 53.964 77.4275 51.135C77.4275 48.306 75.1315 46.01 72.3025 46.01C69.4735 46.01 67.1775 48.306 67.1775 51.135C67.1775 53.964 69.4735 56.26 72.3025 56.26ZM86.5993 62V40.27H87.2553V46.461C88.1573 44.124 89.9203 42.197 92.1753 41.09V40.27H92.8313V40.762C93.9793 40.311 95.2093 40.065 96.5213 40.065C101.974 40.065 106.443 44.534 106.443 49.987V62H105.787V49.987C105.787 44.903 101.605 40.721 96.5213 40.721C95.2093 40.721 93.9793 41.008 92.8313 41.5V47.691C93.6103 46.461 94.9633 45.641 96.5213 45.641C98.8993 45.641 100.867 47.609 100.867 49.987V62H100.211V49.987C100.211 47.978 98.5303 46.297 96.5213 46.297C94.5123 46.297 92.8313 47.978 92.8313 49.987V62H92.1753V41.828C89.2643 43.386 87.2553 46.461 87.2553 49.987V62H86.5993ZM125.676 39.532V45.928H128.587C130.391 45.928 131.785 44.534 131.785 42.73C131.785 40.926 130.391 39.532 128.587 39.532H125.676ZM125.676 38.876H128.587C130.719 38.876 132.441 40.598 132.441 42.73C132.441 44.862 130.719 46.584 128.587 46.584H125.676V51.504H128.587C133.507 51.504 137.361 47.65 137.361 42.73C137.361 37.81 133.507 33.956 128.587 33.956H125.676V38.876ZM120.1 52.16V62H119.444V33.3H128.587C133.835 33.3 138.017 37.482 138.017 42.73C138.017 47.978 133.835 52.16 128.587 52.16H125.676V62H125.02V52.16H120.1ZM120.1 39.532V45.928H125.02V39.532H120.1ZM125.02 33.956H120.1V38.876H125.02V33.956ZM125.02 46.584H120.1V51.504H125.02V46.584ZM146.348 62V42.689C144.134 44.042 141.428 46.83 141.428 51.709V62H140.772V40.27H141.428V47.732C142.453 44.903 144.052 43.304 146.348 41.951V40.27H147.004V41.582C148.644 40.762 150.407 40.352 152.129 40.352V41.008C150.407 41.008 148.603 41.459 147.004 42.32V49.044C147.947 47.199 149.915 45.928 152.129 45.928V46.584C149.259 46.584 147.004 48.88 147.004 51.709V62H146.348ZM164.272 62.492C157.999 62.492 152.915 57.408 152.915 51.135C152.915 44.862 157.999 39.778 164.272 39.778C170.545 39.778 175.629 44.862 175.629 51.135C175.629 57.408 170.545 62.492 164.272 62.492ZM164.272 61.836C170.176 61.836 174.973 57.039 174.973 51.135C174.973 45.231 170.176 40.434 164.272 40.434C158.368 40.434 153.571 45.231 153.571 51.135C153.571 57.039 158.368 61.836 164.272 61.836ZM164.272 56.916C161.074 56.916 158.491 54.333 158.491 51.135C158.491 47.937 161.074 45.354 164.272 45.354C167.47 45.354 170.053 47.937 170.053 51.135C170.053 54.333 167.47 56.916 164.272 56.916ZM164.272 56.26C167.101 56.26 169.397 53.964 169.397 51.135C169.397 48.306 167.101 46.01 164.272 46.01C161.443 46.01 159.147 48.306 159.147 51.135C159.147 53.964 161.443 56.26 164.272 56.26ZM184.145 60.155V42.115C181.398 43.796 179.225 47.199 179.225 51.135C179.225 55.071 181.398 58.474 184.145 60.155ZM189.926 62.492C188.081 62.492 186.359 62.041 184.801 61.262V71.02H184.145V60.893C181.849 59.622 180.045 57.285 179.225 54.948V71.02H178.569V40.27H179.225V47.363C180.045 44.985 181.849 42.607 184.145 41.336V40.27H184.801V41.008C186.359 40.229 188.081 39.778 189.926 39.778C196.199 39.778 201.283 44.862 201.283 51.135C201.283 57.408 196.199 62.492 189.926 62.492ZM189.926 56.916C187.712 56.916 185.785 55.645 184.801 53.8V60.524C186.318 61.344 188.081 61.836 189.926 61.836C195.83 61.836 200.627 57.039 200.627 51.135C200.627 45.231 195.83 40.434 189.926 40.434C188.081 40.434 186.318 40.885 184.801 41.705V48.429C185.785 46.625 187.712 45.354 189.926 45.354C193.124 45.354 195.707 47.937 195.707 51.135C195.707 54.333 193.124 56.916 189.926 56.916ZM189.926 46.01C187.056 46.01 184.801 48.306 184.801 51.135C184.801 53.964 187.056 56.26 189.926 56.26C192.755 56.26 195.051 53.964 195.051 51.135C195.051 48.306 192.755 46.01 189.926 46.01ZM203.25 46.953C203.25 42.976 206.448 39.778 210.425 39.778C213.377 39.778 215.919 41.582 217.026 44.124L216.411 44.411C215.427 42.074 213.09 40.434 210.425 40.434C206.817 40.434 203.906 43.345 203.906 46.953C203.906 50.028 205.997 52.57 208.867 53.308L210.671 53.759C211.368 53.923 211.86 54.579 211.86 55.317C211.86 56.219 211.163 56.916 210.261 56.916C209.564 56.916 208.99 56.506 208.744 55.85L209.359 55.604C209.482 55.973 209.81 56.26 210.261 56.26C210.794 56.26 211.204 55.85 211.204 55.317C211.204 54.866 210.958 54.497 210.507 54.374L208.662 53.923C205.546 53.144 203.25 50.315 203.25 46.953ZM203.66 58.187L204.275 57.9C205.259 60.237 207.555 61.836 210.261 61.836C213.869 61.836 216.78 58.925 216.78 55.317C216.78 52.242 214.689 49.7 211.819 48.962L210.015 48.511C209.277 48.306 208.826 47.691 208.826 46.953C208.826 46.051 209.523 45.354 210.425 45.354C211.122 45.354 211.696 45.805 211.901 46.42L211.327 46.666C211.204 46.297 210.835 46.01 210.425 46.01C209.892 46.01 209.482 46.42 209.482 46.953C209.482 47.404 209.728 47.773 210.179 47.896L212.024 48.347C215.181 49.126 217.436 51.955 217.436 55.317C217.436 59.294 214.238 62.492 210.261 62.492C207.309 62.492 204.767 60.729 203.66 58.187ZM236.023 39.532V45.928H238.934C240.738 45.928 242.132 44.534 242.132 42.73C242.132 40.926 240.738 39.532 238.934 39.532H236.023ZM236.023 38.876H238.934C241.066 38.876 242.788 40.598 242.788 42.73C242.788 44.862 241.066 46.584 238.934 46.584H236.023V51.504H238.934C243.854 51.504 247.708 47.65 247.708 42.73C247.708 37.81 243.854 33.956 238.934 33.956H236.023V38.876ZM230.447 52.16V62H229.791V33.3H238.934C244.182 33.3 248.364 37.482 248.364 42.73C248.364 47.978 244.182 52.16 238.934 52.16H236.023V62H235.367V52.16H230.447ZM230.447 39.532V45.928H235.367V39.532H230.447ZM235.367 33.956H230.447V38.876H235.367V33.956ZM235.367 46.584H230.447V51.504H235.367V46.584ZM260.846 62.492C254.573 62.492 249.489 57.408 249.489 51.135C249.489 44.862 254.573 39.778 260.846 39.778C267.119 39.778 272.203 44.862 272.203 51.135C272.203 57.408 267.119 62.492 260.846 62.492ZM260.846 61.836C266.75 61.836 271.547 57.039 271.547 51.135C271.547 45.231 266.75 40.434 260.846 40.434C254.942 40.434 250.145 45.231 250.145 51.135C250.145 57.039 254.942 61.836 260.846 61.836ZM260.846 56.916C257.648 56.916 255.065 54.333 255.065 51.135C255.065 47.937 257.648 45.354 260.846 45.354C264.044 45.354 266.627 47.937 266.627 51.135C266.627 54.333 264.044 56.916 260.846 56.916ZM260.846 56.26C263.675 56.26 265.971 53.964 265.971 51.135C265.971 48.306 263.675 46.01 260.846 46.01C258.017 46.01 255.721 48.306 255.721 51.135C255.721 53.964 258.017 56.26 260.846 56.26ZM285.598 56.014L290.026 62H289.206L281.375 51.422V62H280.719V31.25H281.375V51.422L290.026 40.27H290.846L285.639 46.953L288.673 50.971L296.914 40.27H297.734L289.083 51.504L296.914 62H296.094L288.632 52.078L285.598 56.014ZM275.799 31.25V62H275.143V31.25H275.799ZM288.222 51.504L285.229 47.486L282.154 51.422L285.188 55.481L288.222 51.504ZM296.375 51.135C296.375 44.862 301.459 39.778 307.732 39.778C312.734 39.778 316.957 42.976 318.474 47.486L305.149 55.563C305.928 56.014 306.789 56.26 307.732 56.26C309.782 56.26 311.545 55.03 312.365 53.308L312.98 53.595C312.078 55.563 310.069 56.916 307.732 56.916C306.543 56.916 305.436 56.547 304.534 55.932L300.106 58.638C302.033 60.606 304.739 61.836 307.732 61.836C311.996 61.836 315.727 59.294 317.449 55.645L318.023 55.932C316.219 59.827 312.283 62.492 307.732 62.492C301.459 62.492 296.375 57.408 296.375 51.135ZM297.031 51.135C297.031 52.324 297.236 53.431 297.564 54.497L301.992 51.791C301.951 51.586 301.951 51.34 301.951 51.135C301.951 47.937 304.534 45.354 307.732 45.354C308.921 45.354 310.069 45.723 310.971 46.338L315.358 43.673C313.431 41.664 310.725 40.434 307.732 40.434C301.828 40.434 297.031 45.231 297.031 51.135ZM297.81 55.112C298.261 56.219 298.876 57.244 299.655 58.146L303.96 55.522C303.058 54.743 302.402 53.677 302.115 52.488L297.81 55.112ZM302.607 51.135V51.422L310.356 46.707C309.577 46.256 308.675 46.01 307.732 46.01C304.903 46.01 302.607 48.306 302.607 51.135ZM302.689 52.16C302.935 53.349 303.632 54.415 304.575 55.153L312.775 50.151C312.529 48.962 311.873 47.896 310.93 47.117L302.689 52.16ZM311.545 46.789C312.447 47.568 313.103 48.593 313.349 49.823L317.695 47.158C317.244 46.051 316.588 45.067 315.85 44.165L311.545 46.789ZM320.467 62V40.27H321.123V45.969C322.025 43.714 323.829 41.869 326.043 40.885V40.27H326.699V40.639C327.642 40.311 328.708 40.106 329.774 40.106C332.152 40.106 334.325 41.008 335.965 42.484C337.605 41.008 339.778 40.106 342.156 40.106C347.281 40.106 351.463 44.288 351.463 49.413V62H350.807V49.413C350.807 44.657 346.912 40.762 342.156 40.762C339.983 40.762 337.974 41.582 336.457 42.935C337.687 44.206 338.548 45.805 338.917 47.609C339.532 46.461 340.762 45.682 342.156 45.682C344.206 45.682 345.887 47.363 345.887 49.413V62H345.231V49.413C345.231 47.732 343.837 46.338 342.156 46.338C340.475 46.338 339.081 47.732 339.081 49.413V62H338.425V49.413C338.425 47.076 337.482 44.944 335.965 43.386C334.448 44.944 333.505 47.076 333.505 49.413V62H332.849V49.413C332.849 47.732 331.455 46.338 329.774 46.338C328.093 46.338 326.699 47.732 326.699 49.413V62H326.043V41.623C323.132 43.017 321.123 46.01 321.123 49.413V62H320.467ZM326.699 41.336V47.322C327.355 46.338 328.503 45.682 329.774 45.682C331.168 45.682 332.398 46.461 333.013 47.609C333.382 45.805 334.243 44.206 335.473 42.935C333.956 41.582 331.947 40.762 329.774 40.762C328.708 40.762 327.642 40.967 326.699 41.336ZM365.468 62.492C359.195 62.492 354.111 57.408 354.111 51.135C354.111 44.862 359.195 39.778 365.468 39.778C371.741 39.778 376.825 44.862 376.825 51.135C376.825 57.408 371.741 62.492 365.468 62.492ZM365.468 61.836C371.372 61.836 376.169 57.039 376.169 51.135C376.169 45.231 371.372 40.434 365.468 40.434C359.564 40.434 354.767 45.231 354.767 51.135C354.767 57.039 359.564 61.836 365.468 61.836ZM365.468 56.916C362.27 56.916 359.687 54.333 359.687 51.135C359.687 47.937 362.27 45.354 365.468 45.354C368.666 45.354 371.249 47.937 371.249 51.135C371.249 54.333 368.666 56.916 365.468 56.916ZM365.468 56.26C368.297 56.26 370.593 53.964 370.593 51.135C370.593 48.306 368.297 46.01 365.468 46.01C362.639 46.01 360.343 48.306 360.343 51.135C360.343 53.964 362.639 56.26 365.468 56.26ZM379.765 62V40.27H380.421V46.461C381.323 44.124 383.086 42.197 385.341 41.09V40.27H385.997V40.762C387.145 40.311 388.375 40.065 389.687 40.065C395.14 40.065 399.609 44.534 399.609 49.987V62H398.953V49.987C398.953 44.903 394.771 40.721 389.687 40.721C388.375 40.721 387.145 41.008 385.997 41.5V47.691C386.776 46.461 388.129 45.641 389.687 45.641C392.065 45.641 394.033 47.609 394.033 49.987V62H393.377V49.987C393.377 47.978 391.696 46.297 389.687 46.297C387.678 46.297 385.997 47.978 385.997 49.987V62H385.341V41.828C382.43 43.386 380.421 46.461 380.421 49.987V62H379.765ZM418.842 39.532V45.928H421.753C423.557 45.928 424.951 44.534 424.951 42.73C424.951 40.926 423.557 39.532 421.753 39.532H418.842ZM418.842 38.876H421.753C423.885 38.876 425.607 40.598 425.607 42.73C425.607 44.862 423.885 46.584 421.753 46.584H418.842V51.504H421.753C426.673 51.504 430.527 47.65 430.527 42.73C430.527 37.81 426.673 33.956 421.753 33.956H418.842V38.876ZM413.266 52.16V62H412.61V33.3H421.753C427.001 33.3 431.183 37.482 431.183 42.73C431.183 47.978 427.001 52.16 421.753 52.16H418.842V62H418.186V52.16H413.266ZM413.266 39.532V45.928H418.186V39.532H413.266ZM418.186 33.956H413.266V38.876H418.186V33.956ZM418.186 46.584H413.266V51.504H418.186V46.584ZM439.514 62V42.689C437.3 44.042 434.594 46.83 434.594 51.709V62H433.938V40.27H434.594V47.732C435.619 44.903 437.218 43.304 439.514 41.951V40.27H440.17V41.582C441.81 40.762 443.573 40.352 445.295 40.352V41.008C443.573 41.008 441.769 41.459 440.17 42.32V49.044C441.113 47.199 443.081 45.928 445.295 45.928V46.584C442.425 46.584 440.17 48.88 440.17 51.709V62H439.514ZM457.438 62.492C451.165 62.492 446.081 57.408 446.081 51.135C446.081 44.862 451.165 39.778 457.438 39.778C463.711 39.778 468.795 44.862 468.795 51.135C468.795 57.408 463.711 62.492 457.438 62.492ZM457.438 61.836C463.342 61.836 468.139 57.039 468.139 51.135C468.139 45.231 463.342 40.434 457.438 40.434C451.534 40.434 446.737 45.231 446.737 51.135C446.737 57.039 451.534 61.836 457.438 61.836ZM457.438 56.916C454.24 56.916 451.657 54.333 451.657 51.135C451.657 47.937 454.24 45.354 457.438 45.354C460.636 45.354 463.219 47.937 463.219 51.135C463.219 54.333 460.636 56.916 457.438 56.916ZM457.438 56.26C460.267 56.26 462.563 53.964 462.563 51.135C462.563 48.306 460.267 46.01 457.438 46.01C454.609 46.01 452.313 48.306 452.313 51.135C452.313 53.964 454.609 56.26 457.438 56.26ZM477.311 60.155V42.115C474.564 43.796 472.391 47.199 472.391 51.135C472.391 55.071 474.564 58.474 477.311 60.155ZM483.092 62.492C481.247 62.492 479.525 62.041 477.967 61.262V71.02H477.311V60.893C475.015 59.622 473.211 57.285 472.391 54.948V71.02H471.735V40.27H472.391V47.363C473.211 44.985 475.015 42.607 477.311 41.336V40.27H477.967V41.008C479.525 40.229 481.247 39.778 483.092 39.778C489.365 39.778 494.449 44.862 494.449 51.135C494.449 57.408 489.365 62.492 483.092 62.492ZM483.092 56.916C480.878 56.916 478.951 55.645 477.967 53.8V60.524C479.484 61.344 481.247 61.836 483.092 61.836C488.996 61.836 493.793 57.039 493.793 51.135C493.793 45.231 488.996 40.434 483.092 40.434C481.247 40.434 479.484 40.885 477.967 41.705V48.429C478.951 46.625 480.878 45.354 483.092 45.354C486.29 45.354 488.873 47.937 488.873 51.135C488.873 54.333 486.29 56.916 483.092 56.916ZM483.092 46.01C480.222 46.01 477.967 48.306 477.967 51.135C477.967 53.964 480.222 56.26 483.092 56.26C485.921 56.26 488.217 53.964 488.217 51.135C488.217 48.306 485.921 46.01 483.092 46.01ZM496.416 46.953C496.416 42.976 499.614 39.778 503.591 39.778C506.543 39.778 509.085 41.582 510.192 44.124L509.577 44.411C508.593 42.074 506.256 40.434 503.591 40.434C499.983 40.434 497.072 43.345 497.072 46.953C497.072 50.028 499.163 52.57 502.033 53.308L503.837 53.759C504.534 53.923 505.026 54.579 505.026 55.317C505.026 56.219 504.329 56.916 503.427 56.916C502.73 56.916 502.156 56.506 501.91 55.85L502.525 55.604C502.648 55.973 502.976 56.26 503.427 56.26C503.96 56.26 504.37 55.85 504.37 55.317C504.37 54.866 504.124 54.497 503.673 54.374L501.828 53.923C498.712 53.144 496.416 50.315 496.416 46.953ZM496.826 58.187L497.441 57.9C498.425 60.237 500.721 61.836 503.427 61.836C507.035 61.836 509.946 58.925 509.946 55.317C509.946 52.242 507.855 49.7 504.985 48.962L503.181 48.511C502.443 48.306 501.992 47.691 501.992 46.953C501.992 46.051 502.689 45.354 503.591 45.354C504.288 45.354 504.862 45.805 505.067 46.42L504.493 46.666C504.37 46.297 504.001 46.01 503.591 46.01C503.058 46.01 502.648 46.42 502.648 46.953C502.648 47.404 502.894 47.773 503.345 47.896L505.19 48.347C508.347 49.126 510.602 51.955 510.602 55.317C510.602 59.294 507.404 62.492 503.427 62.492C500.475 62.492 497.933 60.729 496.826 58.187ZM529.189 39.532V45.928H532.1C533.904 45.928 535.298 44.534 535.298 42.73C535.298 40.926 533.904 39.532 532.1 39.532H529.189ZM529.189 38.876H532.1C534.232 38.876 535.954 40.598 535.954 42.73C535.954 44.862 534.232 46.584 532.1 46.584H529.189V51.504H532.1C537.02 51.504 540.874 47.65 540.874 42.73C540.874 37.81 537.02 33.956 532.1 33.956H529.189V38.876ZM523.613 52.16V62H522.957V33.3H532.1C537.348 33.3 541.53 37.482 541.53 42.73C541.53 47.978 537.348 52.16 532.1 52.16H529.189V62H528.533V52.16H523.613ZM523.613 39.532V45.928H528.533V39.532H523.613ZM528.533 33.956H523.613V38.876H528.533V33.956ZM528.533 46.584H523.613V51.504H528.533V46.584ZM554.012 62.492C547.739 62.492 542.655 57.408 542.655 51.135C542.655 44.862 547.739 39.778 554.012 39.778C560.285 39.778 565.369 44.862 565.369 51.135C565.369 57.408 560.285 62.492 554.012 62.492ZM554.012 61.836C559.916 61.836 564.713 57.039 564.713 51.135C564.713 45.231 559.916 40.434 554.012 40.434C548.108 40.434 543.311 45.231 543.311 51.135C543.311 57.039 548.108 61.836 554.012 61.836ZM554.012 56.916C550.814 56.916 548.231 54.333 548.231 51.135C548.231 47.937 550.814 45.354 554.012 45.354C557.21 45.354 559.793 47.937 559.793 51.135C559.793 54.333 557.21 56.916 554.012 56.916ZM554.012 56.26C556.841 56.26 559.137 53.964 559.137 51.135C559.137 48.306 556.841 46.01 554.012 46.01C551.183 46.01 548.887 48.306 548.887 51.135C548.887 53.964 551.183 56.26 554.012 56.26ZM578.764 56.014L583.192 62H582.372L574.541 51.422V62H573.885V31.25H574.541V51.422L583.192 40.27H584.012L578.805 46.953L581.839 50.971L590.08 40.27H590.9L582.249 51.504L590.08 62H589.26L581.798 52.078L578.764 56.014ZM568.965 31.25V62H568.309V31.25H568.965ZM581.388 51.504L578.395 47.486L575.32 51.422L578.354 55.481L581.388 51.504ZM589.541 51.135C589.541 44.862 594.625 39.778 600.898 39.778C605.9 39.778 610.123 42.976 611.64 47.486L598.315 55.563C599.094 56.014 599.955 56.26 600.898 56.26C602.948 56.26 604.711 55.03 605.531 53.308L606.146 53.595C605.244 55.563 603.235 56.916 600.898 56.916C599.709 56.916 598.602 56.547 597.7 55.932L593.272 58.638C595.199 60.606 597.905 61.836 600.898 61.836C605.162 61.836 608.893 59.294 610.615 55.645L611.189 55.932C609.385 59.827 605.449 62.492 600.898 62.492C594.625 62.492 589.541 57.408 589.541 51.135ZM590.197 51.135C590.197 52.324 590.402 53.431 590.73 54.497L595.158 51.791C595.117 51.586 595.117 51.34 595.117 51.135C595.117 47.937 597.7 45.354 600.898 45.354C602.087 45.354 603.235 45.723 604.137 46.338L608.524 43.673C606.597 41.664 603.891 40.434 600.898 40.434C594.994 40.434 590.197 45.231 590.197 51.135ZM590.976 55.112C591.427 56.219 592.042 57.244 592.821 58.146L597.126 55.522C596.224 54.743 595.568 53.677 595.281 52.488L590.976 55.112ZM595.773 51.135V51.422L603.522 46.707C602.743 46.256 601.841 46.01 600.898 46.01C598.069 46.01 595.773 48.306 595.773 51.135ZM595.855 52.16C596.101 53.349 596.798 54.415 597.741 55.153L605.941 50.151C605.695 48.962 605.039 47.896 604.096 47.117L595.855 52.16ZM604.711 46.789C605.613 47.568 606.269 48.593 606.515 49.823L610.861 47.158C610.41 46.051 609.754 45.067 609.016 44.165L604.711 46.789ZM613.633 62V40.27H614.289V45.969C615.191 43.714 616.995 41.869 619.209 40.885V40.27H619.865V40.639C620.808 40.311 621.874 40.106 622.94 40.106C625.318 40.106 627.491 41.008 629.131 42.484C630.771 41.008 632.944 40.106 635.322 40.106C640.447 40.106 644.629 44.288 644.629 49.413V62H643.973V49.413C643.973 44.657 640.078 40.762 635.322 40.762C633.149 40.762 631.14 41.582 629.623 42.935C630.853 44.206 631.714 45.805 632.083 47.609C632.698 46.461 633.928 45.682 635.322 45.682C637.372 45.682 639.053 47.363 639.053 49.413V62H638.397V49.413C638.397 47.732 637.003 46.338 635.322 46.338C633.641 46.338 632.247 47.732 632.247 49.413V62H631.591V49.413C631.591 47.076 630.648 44.944 629.131 43.386C627.614 44.944 626.671 47.076 626.671 49.413V62H626.015V49.413C626.015 47.732 624.621 46.338 622.94 46.338C621.259 46.338 619.865 47.732 619.865 49.413V62H619.209V41.623C616.298 43.017 614.289 46.01 614.289 49.413V62H613.633ZM619.865 41.336V47.322C620.521 46.338 621.669 45.682 622.94 45.682C624.334 45.682 625.564 46.461 626.179 47.609C626.548 45.805 627.409 44.206 628.639 42.935C627.122 41.582 625.113 40.762 622.94 40.762C621.874 40.762 620.808 40.967 619.865 41.336ZM658.635 62.492C652.362 62.492 647.278 57.408 647.278 51.135C647.278 44.862 652.362 39.778 658.635 39.778C664.908 39.778 669.992 44.862 669.992 51.135C669.992 57.408 664.908 62.492 658.635 62.492ZM658.635 61.836C664.539 61.836 669.336 57.039 669.336 51.135C669.336 45.231 664.539 40.434 658.635 40.434C652.731 40.434 647.934 45.231 647.934 51.135C647.934 57.039 652.731 61.836 658.635 61.836ZM658.635 56.916C655.437 56.916 652.854 54.333 652.854 51.135C652.854 47.937 655.437 45.354 658.635 45.354C661.833 45.354 664.416 47.937 664.416 51.135C664.416 54.333 661.833 56.916 658.635 56.916ZM658.635 56.26C661.464 56.26 663.76 53.964 663.76 51.135C663.76 48.306 661.464 46.01 658.635 46.01C655.806 46.01 653.51 48.306 653.51 51.135C653.51 53.964 655.806 56.26 658.635 56.26ZM672.931 62V40.27H673.587V46.461C674.489 44.124 676.252 42.197 678.507 41.09V40.27H679.163V40.762C680.311 40.311 681.541 40.065 682.853 40.065C688.306 40.065 692.775 44.534 692.775 49.987V62H692.119V49.987C692.119 44.903 687.937 40.721 682.853 40.721C681.541 40.721 680.311 41.008 679.163 41.5V47.691C679.942 46.461 681.295 45.641 682.853 45.641C685.231 45.641 687.199 47.609 687.199 49.987V62H686.543V49.987C686.543 47.978 684.862 46.297 682.853 46.297C680.844 46.297 679.163 47.978 679.163 49.987V62H678.507V41.828C675.596 43.386 673.587 46.461 673.587 49.987V62H672.931ZM712.008 39.532V45.928H714.919C716.723 45.928 718.117 44.534 718.117 42.73C718.117 40.926 716.723 39.532 714.919 39.532H712.008ZM712.008 38.876H714.919C717.051 38.876 718.773 40.598 718.773 42.73C718.773 44.862 717.051 46.584 714.919 46.584H712.008V51.504H714.919C719.839 51.504 723.693 47.65 723.693 42.73C723.693 37.81 719.839 33.956 714.919 33.956H712.008V38.876ZM706.432 52.16V62H705.776V33.3H714.919C720.167 33.3 724.349 37.482 724.349 42.73C724.349 47.978 720.167 52.16 714.919 52.16H712.008V62H711.352V52.16H706.432ZM706.432 39.532V45.928H711.352V39.532H706.432ZM711.352 33.956H706.432V38.876H711.352V33.956ZM711.352 46.584H706.432V51.504H711.352V46.584ZM732.68 62V42.689C730.466 44.042 727.76 46.83 727.76 51.709V62H727.104V40.27H727.76V47.732C728.785 44.903 730.384 43.304 732.68 41.951V40.27H733.336V41.582C734.976 40.762 736.739 40.352 738.461 40.352V41.008C736.739 41.008 734.935 41.459 733.336 42.32V49.044C734.279 47.199 736.247 45.928 738.461 45.928V46.584C735.591 46.584 733.336 48.88 733.336 51.709V62H732.68ZM750.604 62.492C744.331 62.492 739.247 57.408 739.247 51.135C739.247 44.862 744.331 39.778 750.604 39.778C756.877 39.778 761.961 44.862 761.961 51.135C761.961 57.408 756.877 62.492 750.604 62.492ZM750.604 61.836C756.508 61.836 761.305 57.039 761.305 51.135C761.305 45.231 756.508 40.434 750.604 40.434C744.7 40.434 739.903 45.231 739.903 51.135C739.903 57.039 744.7 61.836 750.604 61.836ZM750.604 56.916C747.406 56.916 744.823 54.333 744.823 51.135C744.823 47.937 747.406 45.354 750.604 45.354C753.802 45.354 756.385 47.937 756.385 51.135C756.385 54.333 753.802 56.916 750.604 56.916ZM750.604 56.26C753.433 56.26 755.729 53.964 755.729 51.135C755.729 48.306 753.433 46.01 750.604 46.01C747.775 46.01 745.479 48.306 745.479 51.135C745.479 53.964 747.775 56.26 750.604 56.26ZM770.477 60.155V42.115C767.73 43.796 765.557 47.199 765.557 51.135C765.557 55.071 767.73 58.474 770.477 60.155ZM776.258 62.492C774.413 62.492 772.691 62.041 771.133 61.262V71.02H770.477V60.893C768.181 59.622 766.377 57.285 765.557 54.948V71.02H764.901V40.27H765.557V47.363C766.377 44.985 768.181 42.607 770.477 41.336V40.27H771.133V41.008C772.691 40.229 774.413 39.778 776.258 39.778C782.531 39.778 787.615 44.862 787.615 51.135C787.615 57.408 782.531 62.492 776.258 62.492ZM776.258 56.916C774.044 56.916 772.117 55.645 771.133 53.8V60.524C772.65 61.344 774.413 61.836 776.258 61.836C782.162 61.836 786.959 57.039 786.959 51.135C786.959 45.231 782.162 40.434 776.258 40.434C774.413 40.434 772.65 40.885 771.133 41.705V48.429C772.117 46.625 774.044 45.354 776.258 45.354C779.456 45.354 782.039 47.937 782.039 51.135C782.039 54.333 779.456 56.916 776.258 56.916ZM776.258 46.01C773.388 46.01 771.133 48.306 771.133 51.135C771.133 53.964 773.388 56.26 776.258 56.26C779.087 56.26 781.383 53.964 781.383 51.135C781.383 48.306 779.087 46.01 776.258 46.01ZM789.582 46.953C789.582 42.976 792.78 39.778 796.757 39.778C799.709 39.778 802.251 41.582 803.358 44.124L802.743 44.411C801.759 42.074 799.422 40.434 796.757 40.434C793.149 40.434 790.238 43.345 790.238 46.953C790.238 50.028 792.329 52.57 795.199 53.308L797.003 53.759C797.7 53.923 798.192 54.579 798.192 55.317C798.192 56.219 797.495 56.916 796.593 56.916C795.896 56.916 795.322 56.506 795.076 55.85L795.691 55.604C795.814 55.973 796.142 56.26 796.593 56.26C797.126 56.26 797.536 55.85 797.536 55.317C797.536 54.866 797.29 54.497 796.839 54.374L794.994 53.923C791.878 53.144 789.582 50.315 789.582 46.953ZM789.992 58.187L790.607 57.9C791.591 60.237 793.887 61.836 796.593 61.836C800.201 61.836 803.112 58.925 803.112 55.317C803.112 52.242 801.021 49.7 798.151 48.962L796.347 48.511C795.609 48.306 795.158 47.691 795.158 46.953C795.158 46.051 795.855 45.354 796.757 45.354C797.454 45.354 798.028 45.805 798.233 46.42L797.659 46.666C797.536 46.297 797.167 46.01 796.757 46.01C796.224 46.01 795.814 46.42 795.814 46.953C795.814 47.404 796.06 47.773 796.511 47.896L798.356 48.347C801.513 49.126 803.768 51.955 803.768 55.317C803.768 59.294 800.57 62.492 796.593 62.492C793.641 62.492 791.099 60.729 789.992 58.187ZM822.356 39.532V45.928H825.267C827.071 45.928 828.465 44.534 828.465 42.73C828.465 40.926 827.071 39.532 825.267 39.532H822.356ZM822.356 38.876H825.267C827.399 38.876 829.121 40.598 829.121 42.73C829.121 44.862 827.399 46.584 825.267 46.584H822.356V51.504H825.267C830.187 51.504 834.041 47.65 834.041 42.73C834.041 37.81 830.187 33.956 825.267 33.956H822.356V38.876ZM816.78 52.16V62H816.124V33.3H825.267C830.515 33.3 834.697 37.482 834.697 42.73C834.697 47.978 830.515 52.16 825.267 52.16H822.356V62H821.7V52.16H816.78ZM816.78 39.532V45.928H821.7V39.532H816.78ZM821.7 33.956H816.78V38.876H821.7V33.956ZM821.7 46.584H816.78V51.504H821.7V46.584ZM847.178 62.492C840.905 62.492 835.821 57.408 835.821 51.135C835.821 44.862 840.905 39.778 847.178 39.778C853.451 39.778 858.535 44.862 858.535 51.135C858.535 57.408 853.451 62.492 847.178 62.492ZM847.178 61.836C853.082 61.836 857.879 57.039 857.879 51.135C857.879 45.231 853.082 40.434 847.178 40.434C841.274 40.434 836.477 45.231 836.477 51.135C836.477 57.039 841.274 61.836 847.178 61.836ZM847.178 56.916C843.98 56.916 841.397 54.333 841.397 51.135C841.397 47.937 843.98 45.354 847.178 45.354C850.376 45.354 852.959 47.937 852.959 51.135C852.959 54.333 850.376 56.916 847.178 56.916ZM847.178 56.26C850.007 56.26 852.303 53.964 852.303 51.135C852.303 48.306 850.007 46.01 847.178 46.01C844.349 46.01 842.053 48.306 842.053 51.135C842.053 53.964 844.349 56.26 847.178 56.26ZM871.93 56.014L876.358 62H875.538L867.707 51.422V62H867.051V31.25H867.707V51.422L876.358 40.27H877.178L871.971 46.953L875.005 50.971L883.246 40.27H884.066L875.415 51.504L883.246 62H882.426L874.964 52.078L871.93 56.014ZM862.131 31.25V62H861.475V31.25H862.131ZM874.554 51.504L871.561 47.486L868.486 51.422L871.52 55.481L874.554 51.504ZM882.707 51.135C882.707 44.862 887.791 39.778 894.064 39.778C899.066 39.778 903.289 42.976 904.806 47.486L891.481 55.563C892.26 56.014 893.121 56.26 894.064 56.26C896.114 56.26 897.877 55.03 898.697 53.308L899.312 53.595C898.41 55.563 896.401 56.916 894.064 56.916C892.875 56.916 891.768 56.547 890.866 55.932L886.438 58.638C888.365 60.606 891.071 61.836 894.064 61.836C898.328 61.836 902.059 59.294 903.781 55.645L904.355 55.932C902.551 59.827 898.615 62.492 894.064 62.492C887.791 62.492 882.707 57.408 882.707 51.135ZM883.363 51.135C883.363 52.324 883.568 53.431 883.896 54.497L888.324 51.791C888.283 51.586 888.283 51.34 888.283 51.135C888.283 47.937 890.866 45.354 894.064 45.354C895.253 45.354 896.401 45.723 897.303 46.338L901.69 43.673C899.763 41.664 897.057 40.434 894.064 40.434C888.16 40.434 883.363 45.231 883.363 51.135ZM884.142 55.112C884.593 56.219 885.208 57.244 885.987 58.146L890.292 55.522C889.39 54.743 888.734 53.677 888.447 52.488L884.142 55.112ZM888.939 51.135V51.422L896.688 46.707C895.909 46.256 895.007 46.01 894.064 46.01C891.235 46.01 888.939 48.306 888.939 51.135ZM889.021 52.16C889.267 53.349 889.964 54.415 890.907 55.153L899.107 50.151C898.861 48.962 898.205 47.896 897.262 47.117L889.021 52.16ZM897.877 46.789C898.779 47.568 899.435 48.593 899.681 49.823L904.027 47.158C903.576 46.051 902.92 45.067 902.182 44.165L897.877 46.789ZM906.799 62V40.27H907.455V45.969C908.357 43.714 910.161 41.869 912.375 40.885V40.27H913.031V40.639C913.974 40.311 915.04 40.106 916.106 40.106C918.484 40.106 920.657 41.008 922.297 42.484C923.937 41.008 926.11 40.106 928.488 40.106C933.613 40.106 937.795 44.288 937.795 49.413V62H937.139V49.413C937.139 44.657 933.244 40.762 928.488 40.762C926.315 40.762 924.306 41.582 922.789 42.935C924.019 44.206 924.88 45.805 925.249 47.609C925.864 46.461 927.094 45.682 928.488 45.682C930.538 45.682 932.219 47.363 932.219 49.413V62H931.563V49.413C931.563 47.732 930.169 46.338 928.488 46.338C926.807 46.338 925.413 47.732 925.413 49.413V62H924.757V49.413C924.757 47.076 923.814 44.944 922.297 43.386C920.78 44.944 919.837 47.076 919.837 49.413V62H919.181V49.413C919.181 47.732 917.787 46.338 916.106 46.338C914.425 46.338 913.031 47.732 913.031 49.413V62H912.375V41.623C909.464 43.017 907.455 46.01 907.455 49.413V62H906.799ZM913.031 41.336V47.322C913.687 46.338 914.835 45.682 916.106 45.682C917.5 45.682 918.73 46.461 919.345 47.609C919.714 45.805 920.575 44.206 921.805 42.935C920.288 41.582 918.279 40.762 916.106 40.762C915.04 40.762 913.974 40.967 913.031 41.336ZM951.801 62.492C945.528 62.492 940.444 57.408 940.444 51.135C940.444 44.862 945.528 39.778 951.801 39.778C958.074 39.778 963.158 44.862 963.158 51.135C963.158 57.408 958.074 62.492 951.801 62.492ZM951.801 61.836C957.705 61.836 962.502 57.039 962.502 51.135C962.502 45.231 957.705 40.434 951.801 40.434C945.897 40.434 941.1 45.231 941.1 51.135C941.1 57.039 945.897 61.836 951.801 61.836ZM951.801 56.916C948.603 56.916 946.02 54.333 946.02 51.135C946.02 47.937 948.603 45.354 951.801 45.354C954.999 45.354 957.582 47.937 957.582 51.135C957.582 54.333 954.999 56.916 951.801 56.916ZM951.801 56.26C954.63 56.26 956.926 53.964 956.926 51.135C956.926 48.306 954.63 46.01 951.801 46.01C948.972 46.01 946.676 48.306 946.676 51.135C946.676 53.964 948.972 56.26 951.801 56.26ZM966.097 62V40.27H966.753V46.461C967.655 44.124 969.418 42.197 971.673 41.09V40.27H972.329V40.762C973.477 40.311 974.707 40.065 976.019 40.065C981.472 40.065 985.941 44.534 985.941 49.987V62H985.285V49.987C985.285 44.903 981.103 40.721 976.019 40.721C974.707 40.721 973.477 41.008 972.329 41.5V47.691C973.108 46.461 974.461 45.641 976.019 45.641C978.397 45.641 980.365 47.609 980.365 49.987V62H979.709V49.987C979.709 47.978 978.028 46.297 976.019 46.297C974.01 46.297 972.329 47.978 972.329 49.987V62H971.673V41.828C968.762 43.386 966.753 46.461 966.753 49.987V62H966.097ZM1005.17 39.532V45.928H1008.08C1009.89 45.928 1011.28 44.534 1011.28 42.73C1011.28 40.926 1009.89 39.532 1008.08 39.532H1005.17ZM1005.17 38.876H1008.08C1010.22 38.876 1011.94 40.598 1011.94 42.73C1011.94 44.862 1010.22 46.584 1008.08 46.584H1005.17V51.504H1008.08C1013 51.504 1016.86 47.65 1016.86 42.73C1016.86 37.81 1013 33.956 1008.08 33.956H1005.17V38.876ZM999.598 52.16V62H998.942V33.3H1008.08C1013.33 33.3 1017.51 37.482 1017.51 42.73C1017.51 47.978 1013.33 52.16 1008.08 52.16H1005.17V62H1004.52V52.16H999.598ZM999.598 39.532V45.928H1004.52V39.532H999.598ZM1004.52 33.956H999.598V38.876H1004.52V33.956ZM1004.52 46.584H999.598V51.504H1004.52V46.584ZM1025.85 62V42.689C1023.63 44.042 1020.93 46.83 1020.93 51.709V62H1020.27V40.27H1020.93V47.732C1021.95 44.903 1023.55 43.304 1025.85 41.951V40.27H1026.5V41.582C1028.14 40.762 1029.91 40.352 1031.63 40.352V41.008C1029.91 41.008 1028.1 41.459 1026.5 42.32V49.044C1027.45 47.199 1029.41 45.928 1031.63 45.928V46.584C1028.76 46.584 1026.5 48.88 1026.5 51.709V62H1025.85ZM1043.77 62.492C1037.5 62.492 1032.41 57.408 1032.41 51.135C1032.41 44.862 1037.5 39.778 1043.77 39.778C1050.04 39.778 1055.13 44.862 1055.13 51.135C1055.13 57.408 1050.04 62.492 1043.77 62.492ZM1043.77 61.836C1049.67 61.836 1054.47 57.039 1054.47 51.135C1054.47 45.231 1049.67 40.434 1043.77 40.434C1037.87 40.434 1033.07 45.231 1033.07 51.135C1033.07 57.039 1037.87 61.836 1043.77 61.836ZM1043.77 56.916C1040.57 56.916 1037.99 54.333 1037.99 51.135C1037.99 47.937 1040.57 45.354 1043.77 45.354C1046.97 45.354 1049.55 47.937 1049.55 51.135C1049.55 54.333 1046.97 56.916 1043.77 56.916ZM1043.77 56.26C1046.6 56.26 1048.9 53.964 1048.9 51.135C1048.9 48.306 1046.6 46.01 1043.77 46.01C1040.94 46.01 1038.65 48.306 1038.65 51.135C1038.65 53.964 1040.94 56.26 1043.77 56.26ZM1063.64 60.155V42.115C1060.9 43.796 1058.72 47.199 1058.72 51.135C1058.72 55.071 1060.9 58.474 1063.64 60.155ZM1069.42 62.492C1067.58 62.492 1065.86 62.041 1064.3 61.262V71.02H1063.64V60.893C1061.35 59.622 1059.54 57.285 1058.72 54.948V71.02H1058.07V40.27H1058.72V47.363C1059.54 44.985 1061.35 42.607 1063.64 41.336V40.27H1064.3V41.008C1065.86 40.229 1067.58 39.778 1069.42 39.778C1075.7 39.778 1080.78 44.862 1080.78 51.135C1080.78 57.408 1075.7 62.492 1069.42 62.492ZM1069.42 56.916C1067.21 56.916 1065.28 55.645 1064.3 53.8V60.524C1065.82 61.344 1067.58 61.836 1069.42 61.836C1075.33 61.836 1080.13 57.039 1080.13 51.135C1080.13 45.231 1075.33 40.434 1069.42 40.434C1067.58 40.434 1065.82 40.885 1064.3 41.705V48.429C1065.28 46.625 1067.21 45.354 1069.42 45.354C1072.62 45.354 1075.21 47.937 1075.21 51.135C1075.21 54.333 1072.62 56.916 1069.42 56.916ZM1069.42 46.01C1066.55 46.01 1064.3 48.306 1064.3 51.135C1064.3 53.964 1066.55 56.26 1069.42 56.26C1072.25 56.26 1074.55 53.964 1074.55 51.135C1074.55 48.306 1072.25 46.01 1069.42 46.01ZM1082.75 46.953C1082.75 42.976 1085.95 39.778 1089.92 39.778C1092.88 39.778 1095.42 41.582 1096.52 44.124L1095.91 44.411C1094.93 42.074 1092.59 40.434 1089.92 40.434C1086.32 40.434 1083.4 43.345 1083.4 46.953C1083.4 50.028 1085.5 52.57 1088.37 53.308L1090.17 53.759C1090.87 53.923 1091.36 54.579 1091.36 55.317C1091.36 56.219 1090.66 56.916 1089.76 56.916C1089.06 56.916 1088.49 56.506 1088.24 55.85L1088.86 55.604C1088.98 55.973 1089.31 56.26 1089.76 56.26C1090.29 56.26 1090.7 55.85 1090.7 55.317C1090.7 54.866 1090.46 54.497 1090.01 54.374L1088.16 53.923C1085.04 53.144 1082.75 50.315 1082.75 46.953ZM1083.16 58.187L1083.77 57.9C1084.76 60.237 1087.05 61.836 1089.76 61.836C1093.37 61.836 1096.28 58.925 1096.28 55.317C1096.28 52.242 1094.19 49.7 1091.32 48.962L1089.51 48.511C1088.78 48.306 1088.32 47.691 1088.32 46.953C1088.32 46.051 1089.02 45.354 1089.92 45.354C1090.62 45.354 1091.19 45.805 1091.4 46.42L1090.83 46.666C1090.7 46.297 1090.33 46.01 1089.92 46.01C1089.39 46.01 1088.98 46.42 1088.98 46.953C1088.98 47.404 1089.23 47.773 1089.68 47.896L1091.52 48.347C1094.68 49.126 1096.93 51.955 1096.93 55.317C1096.93 59.294 1093.74 62.492 1089.76 62.492C1086.81 62.492 1084.27 60.729 1083.16 58.187ZM1115.52 39.532V45.928H1118.43C1120.24 45.928 1121.63 44.534 1121.63 42.73C1121.63 40.926 1120.24 39.532 1118.43 39.532H1115.52ZM1115.52 38.876H1118.43C1120.56 38.876 1122.29 40.598 1122.29 42.73C1122.29 44.862 1120.56 46.584 1118.43 46.584H1115.52V51.504H1118.43C1123.35 51.504 1127.21 47.65 1127.21 42.73C1127.21 37.81 1123.35 33.956 1118.43 33.956H1115.52V38.876ZM1109.95 52.16V62H1109.29V33.3H1118.43C1123.68 33.3 1127.86 37.482 1127.86 42.73C1127.86 47.978 1123.68 52.16 1118.43 52.16H1115.52V62H1114.87V52.16H1109.95ZM1109.95 39.532V45.928H1114.87V39.532H1109.95ZM1114.87 33.956H1109.95V38.876H1114.87V33.956ZM1114.87 46.584H1109.95V51.504H1114.87V46.584ZM1140.34 62.492C1134.07 62.492 1128.99 57.408 1128.99 51.135C1128.99 44.862 1134.07 39.778 1140.34 39.778C1146.62 39.778 1151.7 44.862 1151.7 51.135C1151.7 57.408 1146.62 62.492 1140.34 62.492ZM1140.34 61.836C1146.25 61.836 1151.05 57.039 1151.05 51.135C1151.05 45.231 1146.25 40.434 1140.34 40.434C1134.44 40.434 1129.64 45.231 1129.64 51.135C1129.64 57.039 1134.44 61.836 1140.34 61.836ZM1140.34 56.916C1137.15 56.916 1134.56 54.333 1134.56 51.135C1134.56 47.937 1137.15 45.354 1140.34 45.354C1143.54 45.354 1146.13 47.937 1146.13 51.135C1146.13 54.333 1143.54 56.916 1140.34 56.916ZM1140.34 56.26C1143.17 56.26 1145.47 53.964 1145.47 51.135C1145.47 48.306 1143.17 46.01 1140.34 46.01C1137.52 46.01 1135.22 48.306 1135.22 51.135C1135.22 53.964 1137.52 56.26 1140.34 56.26ZM1165.1 56.014L1169.52 62H1168.7L1160.87 51.422V62H1160.22V31.25H1160.87V51.422L1169.52 40.27H1170.34L1165.14 46.953L1168.17 50.971L1176.41 40.27H1177.23L1168.58 51.504L1176.41 62H1175.59L1168.13 52.078L1165.1 56.014ZM1155.3 31.25V62H1154.64V31.25H1155.3ZM1167.72 51.504L1164.73 47.486L1161.65 51.422L1164.69 55.481L1167.72 51.504ZM1175.87 51.135C1175.87 44.862 1180.96 39.778 1187.23 39.778C1192.23 39.778 1196.46 42.976 1197.97 47.486L1184.65 55.563C1185.43 56.014 1186.29 56.26 1187.23 56.26C1189.28 56.26 1191.04 55.03 1191.86 53.308L1192.48 53.595C1191.58 55.563 1189.57 56.916 1187.23 56.916C1186.04 56.916 1184.93 56.547 1184.03 55.932L1179.6 58.638C1181.53 60.606 1184.24 61.836 1187.23 61.836C1191.49 61.836 1195.23 59.294 1196.95 55.645L1197.52 55.932C1195.72 59.827 1191.78 62.492 1187.23 62.492C1180.96 62.492 1175.87 57.408 1175.87 51.135ZM1176.53 51.135C1176.53 52.324 1176.73 53.431 1177.06 54.497L1181.49 51.791C1181.45 51.586 1181.45 51.34 1181.45 51.135C1181.45 47.937 1184.03 45.354 1187.23 45.354C1188.42 45.354 1189.57 45.723 1190.47 46.338L1194.86 43.673C1192.93 41.664 1190.22 40.434 1187.23 40.434C1181.33 40.434 1176.53 45.231 1176.53 51.135ZM1177.31 55.112C1177.76 56.219 1178.37 57.244 1179.15 58.146L1183.46 55.522C1182.56 54.743 1181.9 53.677 1181.61 52.488L1177.31 55.112ZM1182.11 51.135V51.422L1189.85 46.707C1189.08 46.256 1188.17 46.01 1187.23 46.01C1184.4 46.01 1182.11 48.306 1182.11 51.135ZM1182.19 52.16C1182.43 53.349 1183.13 54.415 1184.07 55.153L1192.27 50.151C1192.03 48.962 1191.37 47.896 1190.43 47.117L1182.19 52.16ZM1191.04 46.789C1191.95 47.568 1192.6 48.593 1192.85 49.823L1197.19 47.158C1196.74 46.051 1196.09 45.067 1195.35 44.165L1191.04 46.789ZM1199.97 62V40.27H1200.62V45.969C1201.52 43.714 1203.33 41.869 1205.54 40.885V40.27H1206.2V40.639C1207.14 40.311 1208.21 40.106 1209.27 40.106C1211.65 40.106 1213.82 41.008 1215.46 42.484C1217.1 41.008 1219.28 40.106 1221.65 40.106C1226.78 40.106 1230.96 44.288 1230.96 49.413V62H1230.31V49.413C1230.31 44.657 1226.41 40.762 1221.65 40.762C1219.48 40.762 1217.47 41.582 1215.96 42.935C1217.19 44.206 1218.05 45.805 1218.42 47.609C1219.03 46.461 1220.26 45.682 1221.65 45.682C1223.7 45.682 1225.39 47.363 1225.39 49.413V62H1224.73V49.413C1224.73 47.732 1223.34 46.338 1221.65 46.338C1219.97 46.338 1218.58 47.732 1218.58 49.413V62H1217.92V49.413C1217.92 47.076 1216.98 44.944 1215.46 43.386C1213.95 44.944 1213 47.076 1213 49.413V62H1212.35V49.413C1212.35 47.732 1210.95 46.338 1209.27 46.338C1207.59 46.338 1206.2 47.732 1206.2 49.413V62H1205.54V41.623C1202.63 43.017 1200.62 46.01 1200.62 49.413V62H1199.97ZM1206.2 41.336V47.322C1206.85 46.338 1208 45.682 1209.27 45.682C1210.67 45.682 1211.9 46.461 1212.51 47.609C1212.88 45.805 1213.74 44.206 1214.97 42.935C1213.45 41.582 1211.45 40.762 1209.27 40.762C1208.21 40.762 1207.14 40.967 1206.2 41.336ZM1244.97 62.492C1238.69 62.492 1233.61 57.408 1233.61 51.135C1233.61 44.862 1238.69 39.778 1244.97 39.778C1251.24 39.778 1256.32 44.862 1256.32 51.135C1256.32 57.408 1251.24 62.492 1244.97 62.492ZM1244.97 61.836C1250.87 61.836 1255.67 57.039 1255.67 51.135C1255.67 45.231 1250.87 40.434 1244.97 40.434C1239.06 40.434 1234.27 45.231 1234.27 51.135C1234.27 57.039 1239.06 61.836 1244.97 61.836ZM1244.97 56.916C1241.77 56.916 1239.19 54.333 1239.19 51.135C1239.19 47.937 1241.77 45.354 1244.97 45.354C1248.16 45.354 1250.75 47.937 1250.75 51.135C1250.75 54.333 1248.16 56.916 1244.97 56.916ZM1244.97 56.26C1247.8 56.26 1250.09 53.964 1250.09 51.135C1250.09 48.306 1247.8 46.01 1244.97 46.01C1242.14 46.01 1239.84 48.306 1239.84 51.135C1239.84 53.964 1242.14 56.26 1244.97 56.26ZM1259.26 62V40.27H1259.92V46.461C1260.82 44.124 1262.58 42.197 1264.84 41.09V40.27H1265.5V40.762C1266.64 40.311 1267.87 40.065 1269.19 40.065C1274.64 40.065 1279.11 44.534 1279.11 49.987V62H1278.45V49.987C1278.45 44.903 1274.27 40.721 1269.19 40.721C1267.87 40.721 1266.64 41.008 1265.5 41.5V47.691C1266.27 46.461 1267.63 45.641 1269.19 45.641C1271.56 45.641 1273.53 47.609 1273.53 49.987V62H1272.88V49.987C1272.88 47.978 1271.19 46.297 1269.19 46.297C1267.18 46.297 1265.5 47.978 1265.5 49.987V62H1264.84V41.828C1261.93 43.386 1259.92 46.461 1259.92 49.987V62H1259.26ZM1298.34 39.532V45.928H1301.25C1303.05 45.928 1304.45 44.534 1304.45 42.73C1304.45 40.926 1303.05 39.532 1301.25 39.532H1298.34ZM1298.34 38.876H1301.25C1303.38 38.876 1305.1 40.598 1305.1 42.73C1305.1 44.862 1303.38 46.584 1301.25 46.584H1298.34V51.504H1301.25C1306.17 51.504 1310.02 47.65 1310.02 42.73C1310.02 37.81 1306.17 33.956 1301.25 33.956H1298.34V38.876ZM1292.76 52.16V62H1292.11V33.3H1301.25C1306.5 33.3 1310.68 37.482 1310.68 42.73C1310.68 47.978 1306.5 52.16 1301.25 52.16H1298.34V62H1297.68V52.16H1292.76ZM1292.76 39.532V45.928H1297.68V39.532H1292.76ZM1297.68 33.956H1292.76V38.876H1297.68V33.956ZM1297.68 46.584H1292.76V51.504H1297.68V46.584ZM1319.01 62V42.689C1316.8 44.042 1314.09 46.83 1314.09 51.709V62H1313.44V40.27H1314.09V47.732C1315.12 44.903 1316.72 43.304 1319.01 41.951V40.27H1319.67V41.582C1321.31 40.762 1323.07 40.352 1324.79 40.352V41.008C1323.07 41.008 1321.27 41.459 1319.67 42.32V49.044C1320.61 47.199 1322.58 45.928 1324.79 45.928V46.584C1321.92 46.584 1319.67 48.88 1319.67 51.709V62H1319.01ZM1336.94 62.492C1330.66 62.492 1325.58 57.408 1325.58 51.135C1325.58 44.862 1330.66 39.778 1336.94 39.778C1343.21 39.778 1348.29 44.862 1348.29 51.135C1348.29 57.408 1343.21 62.492 1336.94 62.492ZM1336.94 61.836C1342.84 61.836 1347.64 57.039 1347.64 51.135C1347.64 45.231 1342.84 40.434 1336.94 40.434C1331.03 40.434 1326.24 45.231 1326.24 51.135C1326.24 57.039 1331.03 61.836 1336.94 61.836ZM1336.94 56.916C1333.74 56.916 1331.16 54.333 1331.16 51.135C1331.16 47.937 1333.74 45.354 1336.94 45.354C1340.13 45.354 1342.72 47.937 1342.72 51.135C1342.72 54.333 1340.13 56.916 1336.94 56.916ZM1336.94 56.26C1339.77 56.26 1342.06 53.964 1342.06 51.135C1342.06 48.306 1339.77 46.01 1336.94 46.01C1334.11 46.01 1331.81 48.306 1331.81 51.135C1331.81 53.964 1334.11 56.26 1336.94 56.26ZM1356.81 60.155V42.115C1354.06 43.796 1351.89 47.199 1351.89 51.135C1351.89 55.071 1354.06 58.474 1356.81 60.155ZM1362.59 62.492C1360.75 62.492 1359.02 62.041 1357.47 61.262V71.02H1356.81V60.893C1354.51 59.622 1352.71 57.285 1351.89 54.948V71.02H1351.23V40.27H1351.89V47.363C1352.71 44.985 1354.51 42.607 1356.81 41.336V40.27H1357.47V41.008C1359.02 40.229 1360.75 39.778 1362.59 39.778C1368.86 39.778 1373.95 44.862 1373.95 51.135C1373.95 57.408 1368.86 62.492 1362.59 62.492ZM1362.59 56.916C1360.38 56.916 1358.45 55.645 1357.47 53.8V60.524C1358.98 61.344 1360.75 61.836 1362.59 61.836C1368.49 61.836 1373.29 57.039 1373.29 51.135C1373.29 45.231 1368.49 40.434 1362.59 40.434C1360.75 40.434 1358.98 40.885 1357.47 41.705V48.429C1358.45 46.625 1360.38 45.354 1362.59 45.354C1365.79 45.354 1368.37 47.937 1368.37 51.135C1368.37 54.333 1365.79 56.916 1362.59 56.916ZM1362.59 46.01C1359.72 46.01 1357.47 48.306 1357.47 51.135C1357.47 53.964 1359.72 56.26 1362.59 56.26C1365.42 56.26 1367.72 53.964 1367.72 51.135C1367.72 48.306 1365.42 46.01 1362.59 46.01ZM1375.91 46.953C1375.91 42.976 1379.11 39.778 1383.09 39.778C1386.04 39.778 1388.58 41.582 1389.69 44.124L1389.08 44.411C1388.09 42.074 1385.75 40.434 1383.09 40.434C1379.48 40.434 1376.57 43.345 1376.57 46.953C1376.57 50.028 1378.66 52.57 1381.53 53.308L1383.34 53.759C1384.03 53.923 1384.52 54.579 1384.52 55.317C1384.52 56.219 1383.83 56.916 1382.93 56.916C1382.23 56.916 1381.65 56.506 1381.41 55.85L1382.02 55.604C1382.15 55.973 1382.47 56.26 1382.93 56.26C1383.46 56.26 1383.87 55.85 1383.87 55.317C1383.87 54.866 1383.62 54.497 1383.17 54.374L1381.33 53.923C1378.21 53.144 1375.91 50.315 1375.91 46.953ZM1376.32 58.187L1376.94 57.9C1377.92 60.237 1380.22 61.836 1382.93 61.836C1386.53 61.836 1389.44 58.925 1389.44 55.317C1389.44 52.242 1387.35 49.7 1384.48 48.962L1382.68 48.511C1381.94 48.306 1381.49 47.691 1381.49 46.953C1381.49 46.051 1382.19 45.354 1383.09 45.354C1383.79 45.354 1384.36 45.805 1384.57 46.42L1383.99 46.666C1383.87 46.297 1383.5 46.01 1383.09 46.01C1382.56 46.01 1382.15 46.42 1382.15 46.953C1382.15 47.404 1382.39 47.773 1382.84 47.896L1384.69 48.347C1387.85 49.126 1390.1 51.955 1390.1 55.317C1390.1 59.294 1386.9 62.492 1382.93 62.492C1379.97 62.492 1377.43 60.729 1376.32 58.187ZM1408.69 39.532V45.928H1411.6C1413.4 45.928 1414.8 44.534 1414.8 42.73C1414.8 40.926 1413.4 39.532 1411.6 39.532H1408.69ZM1408.69 38.876H1411.6C1413.73 38.876 1415.45 40.598 1415.45 42.73C1415.45 44.862 1413.73 46.584 1411.6 46.584H1408.69V51.504H1411.6C1416.52 51.504 1420.37 47.65 1420.37 42.73C1420.37 37.81 1416.52 33.956 1411.6 33.956H1408.69V38.876ZM1403.11 52.16V62H1402.46V33.3H1411.6C1416.85 33.3 1421.03 37.482 1421.03 42.73C1421.03 47.978 1416.85 52.16 1411.6 52.16H1408.69V62H1408.03V52.16H1403.11ZM1403.11 39.532V45.928H1408.03V39.532H1403.11ZM1408.03 33.956H1403.11V38.876H1408.03V33.956ZM1408.03 46.584H1403.11V51.504H1408.03V46.584ZM1433.51 62.492C1427.24 62.492 1422.15 57.408 1422.15 51.135C1422.15 44.862 1427.24 39.778 1433.51 39.778C1439.78 39.778 1444.87 44.862 1444.87 51.135C1444.87 57.408 1439.78 62.492 1433.51 62.492ZM1433.51 61.836C1439.41 61.836 1444.21 57.039 1444.21 51.135C1444.21 45.231 1439.41 40.434 1433.51 40.434C1427.61 40.434 1422.81 45.231 1422.81 51.135C1422.81 57.039 1427.61 61.836 1433.51 61.836ZM1433.51 56.916C1430.31 56.916 1427.73 54.333 1427.73 51.135C1427.73 47.937 1430.31 45.354 1433.51 45.354C1436.71 45.354 1439.29 47.937 1439.29 51.135C1439.29 54.333 1436.71 56.916 1433.51 56.916ZM1433.51 56.26C1436.34 56.26 1438.64 53.964 1438.64 51.135C1438.64 48.306 1436.34 46.01 1433.51 46.01C1430.68 46.01 1428.39 48.306 1428.39 51.135C1428.39 53.964 1430.68 56.26 1433.51 56.26ZM1458.26 56.014L1462.69 62H1461.87L1454.04 51.422V62H1453.38V31.25H1454.04V51.422L1462.69 40.27H1463.51L1458.3 46.953L1461.34 50.971L1469.58 40.27H1470.4L1461.75 51.504L1469.58 62H1468.76L1461.3 52.078L1458.26 56.014ZM1448.46 31.25V62H1447.81V31.25H1448.46ZM1460.89 51.504L1457.89 47.486L1454.82 51.422L1457.85 55.481L1460.89 51.504ZM1469.04 51.135C1469.04 44.862 1474.12 39.778 1480.4 39.778C1485.4 39.778 1489.62 42.976 1491.14 47.486L1477.81 55.563C1478.59 56.014 1479.45 56.26 1480.4 56.26C1482.45 56.26 1484.21 55.03 1485.03 53.308L1485.64 53.595C1484.74 55.563 1482.73 56.916 1480.4 56.916C1479.21 56.916 1478.1 56.547 1477.2 55.932L1472.77 58.638C1474.7 60.606 1477.4 61.836 1480.4 61.836C1484.66 61.836 1488.39 59.294 1490.11 55.645L1490.69 55.932C1488.88 59.827 1484.95 62.492 1480.4 62.492C1474.12 62.492 1469.04 57.408 1469.04 51.135ZM1469.7 51.135C1469.7 52.324 1469.9 53.431 1470.23 54.497L1474.66 51.791C1474.62 51.586 1474.62 51.34 1474.62 51.135C1474.62 47.937 1477.2 45.354 1480.4 45.354C1481.59 45.354 1482.73 45.723 1483.64 46.338L1488.02 43.673C1486.1 41.664 1483.39 40.434 1480.4 40.434C1474.49 40.434 1469.7 45.231 1469.7 51.135ZM1470.47 55.112C1470.93 56.219 1471.54 57.244 1472.32 58.146L1476.62 55.522C1475.72 54.743 1475.07 53.677 1474.78 52.488L1470.47 55.112ZM1475.27 51.135V51.422L1483.02 46.707C1482.24 46.256 1481.34 46.01 1480.4 46.01C1477.57 46.01 1475.27 48.306 1475.27 51.135ZM1475.35 52.16C1475.6 53.349 1476.3 54.415 1477.24 55.153L1485.44 50.151C1485.19 48.962 1484.54 47.896 1483.59 47.117L1475.35 52.16ZM1484.21 46.789C1485.11 47.568 1485.77 48.593 1486.01 49.823L1490.36 47.158C1489.91 46.051 1489.25 45.067 1488.51 44.165L1484.21 46.789ZM1493.13 62V40.27H1493.79V45.969C1494.69 43.714 1496.49 41.869 1498.71 40.885V40.27H1499.36V40.639C1500.31 40.311 1501.37 40.106 1502.44 40.106C1504.82 40.106 1506.99 41.008 1508.63 42.484C1510.27 41.008 1512.44 40.106 1514.82 40.106C1519.95 40.106 1524.13 44.288 1524.13 49.413V62H1523.47V49.413C1523.47 44.657 1519.58 40.762 1514.82 40.762C1512.65 40.762 1510.64 41.582 1509.12 42.935C1510.35 44.206 1511.21 45.805 1511.58 47.609C1512.2 46.461 1513.43 45.682 1514.82 45.682C1516.87 45.682 1518.55 47.363 1518.55 49.413V62H1517.9V49.413C1517.9 47.732 1516.5 46.338 1514.82 46.338C1513.14 46.338 1511.75 47.732 1511.75 49.413V62H1511.09V49.413C1511.09 47.076 1510.15 44.944 1508.63 43.386C1507.11 44.944 1506.17 47.076 1506.17 49.413V62H1505.51V49.413C1505.51 47.732 1504.12 46.338 1502.44 46.338C1500.76 46.338 1499.36 47.732 1499.36 49.413V62H1498.71V41.623C1495.8 43.017 1493.79 46.01 1493.79 49.413V62H1493.13ZM1499.36 41.336V47.322C1500.02 46.338 1501.17 45.682 1502.44 45.682C1503.83 45.682 1505.06 46.461 1505.68 47.609C1506.05 45.805 1506.91 44.206 1508.14 42.935C1506.62 41.582 1504.61 40.762 1502.44 40.762C1501.37 40.762 1500.31 40.967 1499.36 41.336ZM1538.13 62.492C1531.86 62.492 1526.78 57.408 1526.78 51.135C1526.78 44.862 1531.86 39.778 1538.13 39.778C1544.41 39.778 1549.49 44.862 1549.49 51.135C1549.49 57.408 1544.41 62.492 1538.13 62.492ZM1538.13 61.836C1544.04 61.836 1548.83 57.039 1548.83 51.135C1548.83 45.231 1544.04 40.434 1538.13 40.434C1532.23 40.434 1527.43 45.231 1527.43 51.135C1527.43 57.039 1532.23 61.836 1538.13 61.836ZM1538.13 56.916C1534.93 56.916 1532.35 54.333 1532.35 51.135C1532.35 47.937 1534.93 45.354 1538.13 45.354C1541.33 45.354 1543.91 47.937 1543.91 51.135C1543.91 54.333 1541.33 56.916 1538.13 56.916ZM1538.13 56.26C1540.96 56.26 1543.26 53.964 1543.26 51.135C1543.26 48.306 1540.96 46.01 1538.13 46.01C1535.3 46.01 1533.01 48.306 1533.01 51.135C1533.01 53.964 1535.3 56.26 1538.13 56.26ZM1552.43 62V40.27H1553.09V46.461C1553.99 44.124 1555.75 42.197 1558.01 41.09V40.27H1558.66V40.762C1559.81 40.311 1561.04 40.065 1562.35 40.065C1567.8 40.065 1572.27 44.534 1572.27 49.987V62H1571.62V49.987C1571.62 44.903 1567.44 40.721 1562.35 40.721C1561.04 40.721 1559.81 41.008 1558.66 41.5V47.691C1559.44 46.461 1560.79 45.641 1562.35 45.641C1564.73 45.641 1566.7 47.609 1566.7 49.987V62H1566.04V49.987C1566.04 47.978 1564.36 46.297 1562.35 46.297C1560.34 46.297 1558.66 47.978 1558.66 49.987V62H1558.01V41.828C1555.09 43.386 1553.09 46.461 1553.09 49.987V62H1552.43ZM1591.51 39.532V45.928H1594.42C1596.22 45.928 1597.61 44.534 1597.61 42.73C1597.61 40.926 1596.22 39.532 1594.42 39.532H1591.51ZM1591.51 38.876H1594.42C1596.55 38.876 1598.27 40.598 1598.27 42.73C1598.27 44.862 1596.55 46.584 1594.42 46.584H1591.51V51.504H1594.42C1599.34 51.504 1603.19 47.65 1603.19 42.73C1603.19 37.81 1599.34 33.956 1594.42 33.956H1591.51V38.876ZM1585.93 52.16V62H1585.27V33.3H1594.42C1599.66 33.3 1603.85 37.482 1603.85 42.73C1603.85 47.978 1599.66 52.16 1594.42 52.16H1591.51V62H1590.85V52.16H1585.93ZM1585.93 39.532V45.928H1590.85V39.532H1585.93ZM1590.85 33.956H1585.93V38.876H1590.85V33.956ZM1590.85 46.584H1585.93V51.504H1590.85V46.584ZM1612.18 62V42.689C1609.96 44.042 1607.26 46.83 1607.26 51.709V62H1606.6V40.27H1607.26V47.732C1608.28 44.903 1609.88 43.304 1612.18 41.951V40.27H1612.83V41.582C1614.47 40.762 1616.24 40.352 1617.96 40.352V41.008C1616.24 41.008 1614.43 41.459 1612.83 42.32V49.044C1613.78 47.199 1615.75 45.928 1617.96 45.928V46.584C1615.09 46.584 1612.83 48.88 1612.83 51.709V62H1612.18ZM1630.1 62.492C1623.83 62.492 1618.75 57.408 1618.75 51.135C1618.75 44.862 1623.83 39.778 1630.1 39.778C1636.38 39.778 1641.46 44.862 1641.46 51.135C1641.46 57.408 1636.38 62.492 1630.1 62.492ZM1630.1 61.836C1636.01 61.836 1640.8 57.039 1640.8 51.135C1640.8 45.231 1636.01 40.434 1630.1 40.434C1624.2 40.434 1619.4 45.231 1619.4 51.135C1619.4 57.039 1624.2 61.836 1630.1 61.836ZM1630.1 56.916C1626.9 56.916 1624.32 54.333 1624.32 51.135C1624.32 47.937 1626.9 45.354 1630.1 45.354C1633.3 45.354 1635.88 47.937 1635.88 51.135C1635.88 54.333 1633.3 56.916 1630.1 56.916ZM1630.1 56.26C1632.93 56.26 1635.23 53.964 1635.23 51.135C1635.23 48.306 1632.93 46.01 1630.1 46.01C1627.27 46.01 1624.98 48.306 1624.98 51.135C1624.98 53.964 1627.27 56.26 1630.1 56.26ZM1649.98 60.155V42.115C1647.23 43.796 1645.06 47.199 1645.06 51.135C1645.06 55.071 1647.23 58.474 1649.98 60.155ZM1655.76 62.492C1653.91 62.492 1652.19 62.041 1650.63 61.262V71.02H1649.98V60.893C1647.68 59.622 1645.88 57.285 1645.06 54.948V71.02H1644.4V40.27H1645.06V47.363C1645.88 44.985 1647.68 42.607 1649.98 41.336V40.27H1650.63V41.008C1652.19 40.229 1653.91 39.778 1655.76 39.778C1662.03 39.778 1667.11 44.862 1667.11 51.135C1667.11 57.408 1662.03 62.492 1655.76 62.492ZM1655.76 56.916C1653.54 56.916 1651.62 55.645 1650.63 53.8V60.524C1652.15 61.344 1653.91 61.836 1655.76 61.836C1661.66 61.836 1666.46 57.039 1666.46 51.135C1666.46 45.231 1661.66 40.434 1655.76 40.434C1653.91 40.434 1652.15 40.885 1650.63 41.705V48.429C1651.62 46.625 1653.54 45.354 1655.76 45.354C1658.95 45.354 1661.54 47.937 1661.54 51.135C1661.54 54.333 1658.95 56.916 1655.76 56.916ZM1655.76 46.01C1652.89 46.01 1650.63 48.306 1650.63 51.135C1650.63 53.964 1652.89 56.26 1655.76 56.26C1658.59 56.26 1660.88 53.964 1660.88 51.135C1660.88 48.306 1658.59 46.01 1655.76 46.01ZM1669.08 46.953C1669.08 42.976 1672.28 39.778 1676.26 39.778C1679.21 39.778 1681.75 41.582 1682.86 44.124L1682.24 44.411C1681.26 42.074 1678.92 40.434 1676.26 40.434C1672.65 40.434 1669.74 43.345 1669.74 46.953C1669.74 50.028 1671.83 52.57 1674.7 53.308L1676.5 53.759C1677.2 53.923 1677.69 54.579 1677.69 55.317C1677.69 56.219 1676.99 56.916 1676.09 56.916C1675.39 56.916 1674.82 56.506 1674.57 55.85L1675.19 55.604C1675.31 55.973 1675.64 56.26 1676.09 56.26C1676.62 56.26 1677.03 55.85 1677.03 55.317C1677.03 54.866 1676.79 54.497 1676.34 54.374L1674.49 53.923C1671.38 53.144 1669.08 50.315 1669.08 46.953ZM1669.49 58.187L1670.11 57.9C1671.09 60.237 1673.39 61.836 1676.09 61.836C1679.7 61.836 1682.61 58.925 1682.61 55.317C1682.61 52.242 1680.52 49.7 1677.65 48.962L1675.85 48.511C1675.11 48.306 1674.66 47.691 1674.66 46.953C1674.66 46.051 1675.35 45.354 1676.26 45.354C1676.95 45.354 1677.53 45.805 1677.73 46.42L1677.16 46.666C1677.03 46.297 1676.67 46.01 1676.26 46.01C1675.72 46.01 1675.31 46.42 1675.31 46.953C1675.31 47.404 1675.56 47.773 1676.01 47.896L1677.85 48.347C1681.01 49.126 1683.27 51.955 1683.27 55.317C1683.27 59.294 1680.07 62.492 1676.09 62.492C1673.14 62.492 1670.6 60.729 1669.49 58.187ZM1701.85 39.532V45.928H1704.76C1706.57 45.928 1707.96 44.534 1707.96 42.73C1707.96 40.926 1706.57 39.532 1704.76 39.532H1701.85ZM1701.85 38.876H1704.76C1706.9 38.876 1708.62 40.598 1708.62 42.73C1708.62 44.862 1706.9 46.584 1704.76 46.584H1701.85V51.504H1704.76C1709.68 51.504 1713.54 47.65 1713.54 42.73C1713.54 37.81 1709.68 33.956 1704.76 33.956H1701.85V38.876ZM1696.28 52.16V62H1695.62V33.3H1704.76C1710.01 33.3 1714.19 37.482 1714.19 42.73C1714.19 47.978 1710.01 52.16 1704.76 52.16H1701.85V62H1701.2V52.16H1696.28ZM1696.28 39.532V45.928H1701.2V39.532H1696.28ZM1701.2 33.956H1696.28V38.876H1701.2V33.956ZM1701.2 46.584H1696.28V51.504H1701.2V46.584ZM1726.68 62.492C1720.4 62.492 1715.32 57.408 1715.32 51.135C1715.32 44.862 1720.4 39.778 1726.68 39.778C1732.95 39.778 1738.03 44.862 1738.03 51.135C1738.03 57.408 1732.95 62.492 1726.68 62.492ZM1726.68 61.836C1732.58 61.836 1737.38 57.039 1737.38 51.135C1737.38 45.231 1732.58 40.434 1726.68 40.434C1720.77 40.434 1715.98 45.231 1715.98 51.135C1715.98 57.039 1720.77 61.836 1726.68 61.836ZM1726.68 56.916C1723.48 56.916 1720.9 54.333 1720.9 51.135C1720.9 47.937 1723.48 45.354 1726.68 45.354C1729.87 45.354 1732.46 47.937 1732.46 51.135C1732.46 54.333 1729.87 56.916 1726.68 56.916ZM1726.68 56.26C1729.51 56.26 1731.8 53.964 1731.8 51.135C1731.8 48.306 1729.51 46.01 1726.68 46.01C1723.85 46.01 1721.55 48.306 1721.55 51.135C1721.55 53.964 1723.85 56.26 1726.68 56.26ZM1751.43 56.014L1755.86 62H1755.04L1747.21 51.422V62H1746.55V31.25H1747.21V51.422L1755.86 40.27H1756.68L1751.47 46.953L1754.5 50.971L1762.74 40.27H1763.56L1754.91 51.504L1762.74 62H1761.92L1754.46 52.078L1751.43 56.014ZM1741.63 31.25V62H1740.97V31.25H1741.63ZM1754.05 51.504L1751.06 47.486L1747.98 51.422L1751.02 55.481L1754.05 51.504ZM1762.21 51.135C1762.21 44.862 1767.29 39.778 1773.56 39.778C1778.56 39.778 1782.79 42.976 1784.3 47.486L1770.98 55.563C1771.76 56.014 1772.62 56.26 1773.56 56.26C1775.61 56.26 1777.38 55.03 1778.2 53.308L1778.81 53.595C1777.91 55.563 1775.9 56.916 1773.56 56.916C1772.37 56.916 1771.27 56.547 1770.36 55.932L1765.94 58.638C1767.86 60.606 1770.57 61.836 1773.56 61.836C1777.83 61.836 1781.56 59.294 1783.28 55.645L1783.85 55.932C1782.05 59.827 1778.11 62.492 1773.56 62.492C1767.29 62.492 1762.21 57.408 1762.21 51.135ZM1762.86 51.135C1762.86 52.324 1763.07 53.431 1763.39 54.497L1767.82 51.791C1767.78 51.586 1767.78 51.34 1767.78 51.135C1767.78 47.937 1770.36 45.354 1773.56 45.354C1774.75 45.354 1775.9 45.723 1776.8 46.338L1781.19 43.673C1779.26 41.664 1776.56 40.434 1773.56 40.434C1767.66 40.434 1762.86 45.231 1762.86 51.135ZM1763.64 55.112C1764.09 56.219 1764.71 57.244 1765.49 58.146L1769.79 55.522C1768.89 54.743 1768.23 53.677 1767.95 52.488L1763.64 55.112ZM1768.44 51.135V51.422L1776.19 46.707C1775.41 46.256 1774.51 46.01 1773.56 46.01C1770.73 46.01 1768.44 48.306 1768.44 51.135ZM1768.52 52.16C1768.77 53.349 1769.46 54.415 1770.41 55.153L1778.61 50.151C1778.36 48.962 1777.7 47.896 1776.76 47.117L1768.52 52.16ZM1777.38 46.789C1778.28 47.568 1778.93 48.593 1779.18 49.823L1783.53 47.158C1783.07 46.051 1782.42 45.067 1781.68 44.165L1777.38 46.789ZM1786.3 62V40.27H1786.95V45.969C1787.86 43.714 1789.66 41.869 1791.87 40.885V40.27H1792.53V40.639C1793.47 40.311 1794.54 40.106 1795.6 40.106C1797.98 40.106 1800.16 41.008 1801.8 42.484C1803.44 41.008 1805.61 40.106 1807.99 40.106C1813.11 40.106 1817.29 44.288 1817.29 49.413V62H1816.64V49.413C1816.64 44.657 1812.74 40.762 1807.99 40.762C1805.81 40.762 1803.8 41.582 1802.29 42.935C1803.52 44.206 1804.38 45.805 1804.75 47.609C1805.36 46.461 1806.59 45.682 1807.99 45.682C1810.04 45.682 1811.72 47.363 1811.72 49.413V62H1811.06V49.413C1811.06 47.732 1809.67 46.338 1807.99 46.338C1806.31 46.338 1804.91 47.732 1804.91 49.413V62H1804.26V49.413C1804.26 47.076 1803.31 44.944 1801.8 43.386C1800.28 44.944 1799.34 47.076 1799.34 49.413V62H1798.68V49.413C1798.68 47.732 1797.29 46.338 1795.6 46.338C1793.92 46.338 1792.53 47.732 1792.53 49.413V62H1791.87V41.623C1788.96 43.017 1786.95 46.01 1786.95 49.413V62H1786.3ZM1792.53 41.336V47.322C1793.19 46.338 1794.33 45.682 1795.6 45.682C1797 45.682 1798.23 46.461 1798.84 47.609C1799.21 45.805 1800.07 44.206 1801.3 42.935C1799.79 41.582 1797.78 40.762 1795.6 40.762C1794.54 40.762 1793.47 40.967 1792.53 41.336ZM1831.3 62.492C1825.03 62.492 1819.94 57.408 1819.94 51.135C1819.94 44.862 1825.03 39.778 1831.3 39.778C1837.57 39.778 1842.66 44.862 1842.66 51.135C1842.66 57.408 1837.57 62.492 1831.3 62.492ZM1831.3 61.836C1837.2 61.836 1842 57.039 1842 51.135C1842 45.231 1837.2 40.434 1831.3 40.434C1825.39 40.434 1820.6 45.231 1820.6 51.135C1820.6 57.039 1825.39 61.836 1831.3 61.836ZM1831.3 56.916C1828.1 56.916 1825.52 54.333 1825.52 51.135C1825.52 47.937 1828.1 45.354 1831.3 45.354C1834.5 45.354 1837.08 47.937 1837.08 51.135C1837.08 54.333 1834.5 56.916 1831.3 56.916ZM1831.3 56.26C1834.13 56.26 1836.42 53.964 1836.42 51.135C1836.42 48.306 1834.13 46.01 1831.3 46.01C1828.47 46.01 1826.17 48.306 1826.17 51.135C1826.17 53.964 1828.47 56.26 1831.3 56.26ZM1845.6 62V40.27H1846.25V46.461C1847.15 44.124 1848.92 42.197 1851.17 41.09V40.27H1851.83V40.762C1852.98 40.311 1854.21 40.065 1855.52 40.065C1860.97 40.065 1865.44 44.534 1865.44 49.987V62H1864.78V49.987C1864.78 44.903 1860.6 40.721 1855.52 40.721C1854.21 40.721 1852.98 41.008 1851.83 41.5V47.691C1852.61 46.461 1853.96 45.641 1855.52 45.641C1857.9 45.641 1859.86 47.609 1859.86 49.987V62H1859.21V49.987C1859.21 47.978 1857.53 46.297 1855.52 46.297C1853.51 46.297 1851.83 47.978 1851.83 49.987V62H1851.17V41.828C1848.26 43.386 1846.25 46.461 1846.25 49.987V62H1845.6ZM1884.67 39.532V45.928H1887.58C1889.39 45.928 1890.78 44.534 1890.78 42.73C1890.78 40.926 1889.39 39.532 1887.58 39.532H1884.67ZM1884.67 38.876H1887.58C1889.71 38.876 1891.44 40.598 1891.44 42.73C1891.44 44.862 1889.71 46.584 1887.58 46.584H1884.67V51.504H1887.58C1892.5 51.504 1896.36 47.65 1896.36 42.73C1896.36 37.81 1892.5 33.956 1887.58 33.956H1884.67V38.876ZM1879.1 52.16V62H1878.44V33.3H1887.58C1892.83 33.3 1897.01 37.482 1897.01 42.73C1897.01 47.978 1892.83 52.16 1887.58 52.16H1884.67V62H1884.02V52.16H1879.1ZM1879.1 39.532V45.928H1884.02V39.532H1879.1ZM1884.02 33.956H1879.1V38.876H1884.02V33.956ZM1884.02 46.584H1879.1V51.504H1884.02V46.584ZM1905.34 62V42.689C1903.13 44.042 1900.42 46.83 1900.42 51.709V62H1899.77V40.27H1900.42V47.732C1901.45 44.903 1903.05 43.304 1905.34 41.951V40.27H1906V41.582C1907.64 40.762 1909.4 40.352 1911.13 40.352V41.008C1909.4 41.008 1907.6 41.459 1906 42.32V49.044C1906.94 47.199 1908.91 45.928 1911.13 45.928V46.584C1908.26 46.584 1906 48.88 1906 51.709V62H1905.34ZM1923.27 62.492C1917 62.492 1911.91 57.408 1911.91 51.135C1911.91 44.862 1917 39.778 1923.27 39.778C1929.54 39.778 1934.63 44.862 1934.63 51.135C1934.63 57.408 1929.54 62.492 1923.27 62.492ZM1923.27 61.836C1929.17 61.836 1933.97 57.039 1933.97 51.135C1933.97 45.231 1929.17 40.434 1923.27 40.434C1917.36 40.434 1912.57 45.231 1912.57 51.135C1912.57 57.039 1917.36 61.836 1923.27 61.836ZM1923.27 56.916C1920.07 56.916 1917.49 54.333 1917.49 51.135C1917.49 47.937 1920.07 45.354 1923.27 45.354C1926.47 45.354 1929.05 47.937 1929.05 51.135C1929.05 54.333 1926.47 56.916 1923.27 56.916ZM1923.27 56.26C1926.1 56.26 1928.39 53.964 1928.39 51.135C1928.39 48.306 1926.1 46.01 1923.27 46.01C1920.44 46.01 1918.14 48.306 1918.14 51.135C1918.14 53.964 1920.44 56.26 1923.27 56.26ZM1943.14 60.155V42.115C1940.39 43.796 1938.22 47.199 1938.22 51.135C1938.22 55.071 1940.39 58.474 1943.14 60.155ZM1948.92 62.492C1947.08 62.492 1945.36 62.041 1943.8 61.262V71.02H1943.14V60.893C1940.85 59.622 1939.04 57.285 1938.22 54.948V71.02H1937.57V40.27H1938.22V47.363C1939.04 44.985 1940.85 42.607 1943.14 41.336V40.27H1943.8V41.008C1945.36 40.229 1947.08 39.778 1948.92 39.778C1955.2 39.778 1960.28 44.862 1960.28 51.135C1960.28 57.408 1955.2 62.492 1948.92 62.492ZM1948.92 56.916C1946.71 56.916 1944.78 55.645 1943.8 53.8V60.524C1945.31 61.344 1947.08 61.836 1948.92 61.836C1954.83 61.836 1959.62 57.039 1959.62 51.135C1959.62 45.231 1954.83 40.434 1948.92 40.434C1947.08 40.434 1945.31 40.885 1943.8 41.705V48.429C1944.78 46.625 1946.71 45.354 1948.92 45.354C1952.12 45.354 1954.7 47.937 1954.7 51.135C1954.7 54.333 1952.12 56.916 1948.92 56.916ZM1948.92 46.01C1946.05 46.01 1943.8 48.306 1943.8 51.135C1943.8 53.964 1946.05 56.26 1948.92 56.26C1951.75 56.26 1954.05 53.964 1954.05 51.135C1954.05 48.306 1951.75 46.01 1948.92 46.01ZM1962.25 46.953C1962.25 42.976 1965.44 39.778 1969.42 39.778C1972.37 39.778 1974.92 41.582 1976.02 44.124L1975.41 44.411C1974.42 42.074 1972.09 40.434 1969.42 40.434C1965.81 40.434 1962.9 43.345 1962.9 46.953C1962.9 50.028 1964.99 52.57 1967.86 53.308L1969.67 53.759C1970.36 53.923 1970.86 54.579 1970.86 55.317C1970.86 56.219 1970.16 56.916 1969.26 56.916C1968.56 56.916 1967.99 56.506 1967.74 55.85L1968.36 55.604C1968.48 55.973 1968.81 56.26 1969.26 56.26C1969.79 56.26 1970.2 55.85 1970.2 55.317C1970.2 54.866 1969.95 54.497 1969.5 54.374L1967.66 53.923C1964.54 53.144 1962.25 50.315 1962.25 46.953ZM1962.66 58.187L1963.27 57.9C1964.26 60.237 1966.55 61.836 1969.26 61.836C1972.87 61.836 1975.78 58.925 1975.78 55.317C1975.78 52.242 1973.69 49.7 1970.82 48.962L1969.01 48.511C1968.27 48.306 1967.82 47.691 1967.82 46.953C1967.82 46.051 1968.52 45.354 1969.42 45.354C1970.12 45.354 1970.69 45.805 1970.9 46.42L1970.32 46.666C1970.2 46.297 1969.83 46.01 1969.42 46.01C1968.89 46.01 1968.48 46.42 1968.48 46.953C1968.48 47.404 1968.72 47.773 1969.18 47.896L1971.02 48.347C1974.18 49.126 1976.43 51.955 1976.43 55.317C1976.43 59.294 1973.23 62.492 1969.26 62.492C1966.31 62.492 1963.76 60.729 1962.66 58.187Z" fill="white"/>
</g>
<defs>
<clipPath id="clip0_443_857">
<rect width="1940" height="343" fill="white"/>
</clipPath>
</defs>
</svg>
